<?xml version="1.0" encoding="UTF-8"?>
<svg xmlns="http://www.w3.org/2000/svg" xmlns:xlink="http://www.w3.org/1999/xlink" version="1.2" >
<font id="Orev Bold Italic">
<font-face  font-family="Orev" units-per-em="1000" ascent="750" descent="-250" font-style="italic" font-weight="700" font-stretch="normal" cap-height="568" x-height="405" underline-position="-91" underline-thickness="35" />
<missing-glyph  horiz-adv-x="553" d="M527 0 L527 626 L16 626 L16 0 L527 0 Z M80 43 L80 64 L61 64 L59 44 C60 44 61 44 61 43 L80 43 Z M481 582 C482 582 483 581 483 580 L481 580 L481 582 Z M463 580 L463 562 L481 562 L481 580 L463 580 Z M481 64 L463 64 L463 45 L483 45 L481 64 Z M63 562 L80 562 L80 582 L61 583 C61 582 62 582 63 582 L63 562 Z M80 562 L463 562 L463 64 L80 64 L80 562 Z " />
<glyph glyph-name="space" unicode="&#x20;" horiz-adv-x="199" d="" />
<glyph glyph-name="exclam" unicode="&#x21;" horiz-adv-x="239" d="M102 163 L193 163 L273 568 L167 568 L102 163 Z M67 57 C60 24 85 -5 118 -5 C154 -5 185 24 192 57 C199 93 176 120 140 120 C107 120 74 93 67 57 L67 57 Z " />
<glyph glyph-name="quotedbl" unicode="&#x22;" horiz-adv-x="366" d="M130 371 L214 371 L260 568 L157 568 L130 371 Z M279 371 L363 371 L409 568 L306 568 L279 371 Z " />
<glyph glyph-name="numbersign" unicode="&#x23;" horiz-adv-x="700" d="M705 353 L721 448 L652 448 L719 568 L620 568 L553 448 L425 448 L492 568 L393 568 L327 448 L196 448 L180 353 L275 353 L199 215 L94 215 L78 120 L148 120 L80 0 L181 0 L246 120 L374 120 L307 0 L407 0 L473 120 L603 120 L619 215 L524 215 L600 353 L705 353 Z M426 215 L298 215 L374 353 L502 353 L426 215 Z " />
<glyph glyph-name="dollar" unicode="&#x24;" horiz-adv-x="502" d="M474 168 C506 341 207 313 223 406 C236 482 294 481 331 481 C392 481 417 437 409 376 L502 376 C518 485 477 551 397 570 L413 662 L320 662 L305 573 C209 562 147 510 128 405 C96 221 392 240 380 167 C370 104 309 84 276 84 C232 84 176 108 184 188 L90 188 C77 84 128 22 204 2 L186 -99 L279 -99 L296 -2 C402 12 458 85 474 168 L474 168 Z " />
<glyph glyph-name="percent" unicode="&#x25;" horiz-adv-x="515" d="M334 441 C313 441 311 449 314 468 C318 488 323 496 344 496 C367 496 369 488 365 468 C362 449 357 441 334 441 L334 441 Z M321 365 C392 365 426 401 438 468 C449 532 428 568 357 568 C288 568 252 532 241 468 C229 401 252 365 321 365 L321 365 Z M104 202 L507 280 L509 362 L107 284 L104 202 Z M269 71 C248 71 245 79 249 98 C252 118 258 126 279 126 C302 126 303 118 300 98 C296 79 292 71 269 71 L269 71 Z M256 -5 C327 -5 361 31 373 98 C384 162 362 198 291 198 C222 198 187 162 176 98 C164 31 187 -5 256 -5 L256 -5 Z " />
<glyph glyph-name="ampersand" unicode="&#x26;" horiz-adv-x="540" d="M435 259 C431 236 422 204 407 183 L291 474 L506 474 L523 568 L241 568 C216 568 189 547 184 520 L178 486 L184 469 C199 434 215 398 228 362 C152 333 104 269 89 185 C69 70 123 -5 260 -5 C379 -5 499 92 528 259 L547 367 L454 367 L435 259 Z M182 185 C191 236 226 267 261 278 L333 96 C317 88 299 84 280 84 C228 84 169 113 182 185 L182 185 Z " />
<glyph glyph-name="quotesingle" unicode="&#x27;" horiz-adv-x="216" d="M130 371 L214 371 L259 568 L157 568 L130 371 Z " />
<glyph glyph-name="parenleft" unicode="&#x28;" horiz-adv-x="309" d="M105 275 C80 132 81 -28 124 -177 L220 -177 C175 -22 174 140 198 276 C222 413 280 571 380 726 L284 726 C187 577 130 418 105 275 L105 275 Z " />
<glyph glyph-name="parenright" unicode="&#x29;" horiz-adv-x="309" d="M300 275 C325 418 324 577 281 726 L185 726 C229 571 231 413 207 276 C183 140 125 -22 25 -177 L121 -177 C218 -28 275 132 300 275 L300 275 Z " />
<glyph glyph-name="asterisk" unicode="&#x2a;" horiz-adv-x="461" d="M380 568 L282 568 L267 446 L180 498 L129 412 L231 368 L145 289 L211 230 L286 319 L330 230 L417 288 L359 368 L476 412 L455 498 L351 447 L380 568 Z " />
<glyph glyph-name="plus" unicode="&#x2b;" horiz-adv-x="401" d="M387 247 L289 247 L308 355 L215 355 L196 247 L100 247 L83 153 L179 153 L161 46 L254 46 L272 153 L370 153 L387 247 Z " />
<glyph glyph-name="comma" unicode="&#x2c;" horiz-adv-x="239" d="M67 57 C62 34 72 14 87 3 C82 -24 73 -41 57 -80 L126 -80 C153 -46 184 19 192 57 C199 93 176 120 140 120 C107 120 74 93 67 57 L67 57 Z " />
<glyph glyph-name="hyphen" unicode="&#x2d;" horiz-adv-x="404" d="M83 153 L373 153 L390 247 L100 247 L83 153 Z " />
<glyph glyph-name="period" unicode="&#x2e;" horiz-adv-x="239" d="M67 57 C60 24 85 -5 118 -5 C154 -5 185 24 192 57 C199 93 176 120 140 120 C107 120 74 93 67 57 L67 57 Z " />
<glyph glyph-name="slash" unicode="&#x2f;" horiz-adv-x="522" d="M34 -127 L127 -127 L590 713 L497 713 L34 -127 Z " />
<glyph glyph-name="zero" unicode="0" horiz-adv-x="460" d="M244 84 C193 84 160 115 171 180 L207 384 C219 451 263 481 314 481 C365 481 399 451 387 384 L351 180 C340 115 295 84 244 84 L244 84 Z M229 -5 C351 -5 426 74 445 187 L480 383 C499 494 454 575 331 575 C210 575 133 494 114 383 L79 187 C60 74 107 -5 229 -5 L229 -5 Z " />
<glyph glyph-name="one" unicode="1" horiz-adv-x="336" d="M87 459 L68 351 L266 455 L186 0 L279 0 L370 520 C375 547 358 568 330 568 L297 568 L87 459 Z " />
<glyph glyph-name="two" unicode="2" horiz-adv-x="435" d="M369 392 C353 296 108 172 56 80 L42 0 L393 0 L409 96 L189 96 C286 179 441 266 462 392 C480 503 441 575 318 575 C197 575 135 505 112 381 L209 381 C222 460 253 481 302 481 C353 481 380 457 369 392 L369 392 Z " />
<glyph glyph-name="three" unicode="3" horiz-adv-x="444" d="M195 371 C210 451 255 481 306 481 C357 481 389 457 378 392 C375 376 357 333 320 333 L230 333 L214 239 L288 239 C344 239 342 187 337 163 C326 100 286 84 237 84 C183 84 151 118 164 195 L71 195 C48 71 98 -5 222 -5 C333 -5 409 46 430 163 C438 199 436 253 407 282 C444 309 466 357 471 392 C489 503 444 575 323 575 C200 575 126 494 102 371 L195 371 Z " />
<glyph glyph-name="four" unicode="4" horiz-adv-x="440" d="M37 201 C33 176 52 153 77 153 L316 153 L290 0 L383 0 L474 520 C479 547 463 568 438 568 L422 568 C407 568 397 562 385 553 L54 246 C47 241 42 232 41 223 L37 201 Z M181 247 L363 416 L333 247 L181 247 Z " />
<glyph glyph-name="five" unicode="5" horiz-adv-x="443" d="M77 171 C60 54 111 -5 229 -5 C354 -5 419 49 439 162 L446 201 C466 314 420 369 295 369 C260 369 227 363 202 352 L223 474 L457 474 L474 568 L196 568 C171 568 143 547 138 520 L100 301 C95 274 114 260 135 253 L172 244 C185 244 198 248 210 256 C229 269 249 273 278 273 C331 273 364 262 353 201 L346 162 C335 101 297 84 244 84 C196 84 162 102 170 171 L77 171 Z " />
<glyph glyph-name="six" unicode="6" horiz-adv-x="458" d="M351 161 C340 101 302 84 249 84 C198 84 162 101 173 161 L178 189 C189 251 230 261 281 261 C334 261 367 251 356 189 L351 161 Z M479 408 C495 516 446 575 330 575 C208 575 138 494 119 383 L80 162 C60 51 111 -5 234 -5 C358 -5 424 49 444 162 L449 189 C469 301 418 357 297 357 C262 357 228 351 205 342 L212 384 C224 449 263 481 314 481 C359 481 391 467 383 408 L479 408 Z " />
<glyph glyph-name="seven" unicode="7" horiz-adv-x="365" d="M112 568 L95 474 L330 474 L53 0 L153 0 L438 487 L444 520 C449 547 432 568 405 568 L112 568 Z " />
<glyph glyph-name="eight" unicode="8" horiz-adv-x="446" d="M237 84 C184 84 152 101 163 162 L165 173 C176 233 209 244 258 245 L275 245 C323 245 352 232 341 173 L339 162 C328 101 290 84 237 84 L237 84 Z M274 341 C229 341 202 347 213 405 L214 412 C225 474 256 481 307 481 C359 481 387 474 376 412 L375 405 C365 347 338 341 292 341 L274 341 Z M222 -5 C346 -5 412 49 432 162 L434 173 C443 224 432 266 409 294 C438 321 459 356 468 405 L469 412 C489 525 448 575 324 575 C200 575 141 525 121 412 L120 405 C111 356 120 321 139 294 C106 266 81 224 72 173 L70 162 C50 51 101 -5 222 -5 L222 -5 Z " />
<glyph glyph-name="nine" unicode="9" horiz-adv-x="458" d="M207 409 C218 469 254 481 307 481 C357 481 396 469 385 409 L377 367 C366 305 325 295 275 295 C222 295 188 305 199 367 L207 409 Z M78 162 C62 54 112 -5 228 -5 C350 -5 419 74 438 187 L477 408 C497 519 446 575 324 575 C200 575 133 521 113 408 L106 367 C86 255 137 199 258 199 C293 199 327 205 350 214 L345 186 C334 121 294 84 243 84 C196 84 167 102 174 162 L78 162 Z " />
<glyph glyph-name="colon" unicode="&#x3a;" horiz-adv-x="239" d="M114 328 C109 296 133 267 166 267 C202 267 234 296 239 328 C246 364 223 391 187 391 C154 391 121 364 114 328 L114 328 Z M67 57 C60 24 85 -5 118 -5 C154 -5 185 24 192 57 C199 93 176 120 140 120 C107 120 74 93 67 57 L67 57 Z " />
<glyph glyph-name="semicolon" unicode="&#x3b;" horiz-adv-x="239" d="M67 57 C62 34 72 14 87 3 C82 -24 73 -41 57 -80 L126 -80 C153 -46 184 19 192 57 C199 93 176 120 140 120 C107 120 74 93 67 57 L67 57 Z M114 328 C109 296 133 267 166 267 C202 267 234 296 239 328 C246 364 223 391 187 391 C154 391 121 364 114 328 L114 328 Z " />
<glyph glyph-name="less" unicode="&#x3c;" horiz-adv-x="404" d="M84 157 L345 -10 L364 98 C313 130 248 169 197 201 L400 305 L419 412 L100 247 L84 157 Z " />
<glyph glyph-name="equal" unicode="&#x3d;" horiz-adv-x="404" d="M68 66 L358 66 L375 160 L85 160 L68 66 Z M94 211 L384 211 L400 305 L110 305 L94 211 Z " />
<glyph glyph-name="greater" unicode="&#x3e;" horiz-adv-x="404" d="M390 247 L129 412 L110 305 L277 201 C213 169 135 130 74 98 L55 -10 L374 157 L390 247 Z " />
<glyph glyph-name="question" unicode="&#x3f;" horiz-adv-x="462" d="M474 392 C492 503 453 575 330 575 C209 575 147 505 124 381 L221 381 C234 460 265 481 314 481 C365 481 392 457 381 392 C360 307 242 283 223 181 L219 155 L313 155 L316 173 C327 231 453 294 474 392 L474 392 Z M186 57 C179 24 204 -5 237 -5 C273 -5 304 24 311 57 C318 93 295 120 259 120 C226 120 193 93 186 57 L186 57 Z " />
<glyph glyph-name="at" unicode="&#x40;" horiz-adv-x="571" d="M486 371 C466 383 446 387 425 387 C341 387 269 334 253 245 L234 137 C218 48 278 -5 361 -5 C443 -5 522 48 538 137 L582 386 C601 497 523 575 405 575 L368 575 C251 575 144 497 125 386 L62 33 C44 -78 125 -141 257 -141 L273 -47 C211 -47 145 -28 156 33 L219 386 C230 453 299 481 351 481 L388 481 C440 481 500 453 489 386 L486 371 Z M376 84 C347 84 319 100 326 132 L346 245 C351 277 384 293 413 293 C441 293 469 278 464 247 L444 132 C437 100 405 84 376 84 L376 84 Z " />
<glyph glyph-name="A" unicode="A" horiz-adv-x="492" d="M401 307 L199 307 L212 383 C224 448 278 481 330 481 C383 481 425 450 414 383 L401 307 Z M384 211 L347 0 L440 0 L507 383 C526 494 468 575 347 575 C228 575 138 494 119 383 L52 0 L145 0 L182 211 L384 211 Z " />
<glyph glyph-name="B" unicode="B" horiz-adv-x="466" d="M311 474 C364 474 403 450 394 402 C386 351 339 330 286 330 L208 330 L233 474 L311 474 Z M166 94 L191 236 L287 236 C340 236 379 216 370 168 C361 117 315 94 262 94 L166 94 Z M206 568 C181 568 153 547 148 520 L65 48 C60 21 81 0 106 0 L242 0 C365 0 443 55 463 168 C474 224 459 260 432 287 C460 314 479 355 487 402 C507 515 446 568 325 568 L206 568 Z " />
<glyph glyph-name="C" unicode="C" horiz-adv-x="461" d="M498 378 C514 494 459 575 341 575 C222 575 133 494 114 383 L79 187 C60 74 118 -5 239 -5 C356 -5 441 76 465 192 L371 192 C354 123 305 84 254 84 C202 84 161 121 172 186 L207 383 C219 450 272 480 324 480 C375 480 412 447 404 378 L498 378 Z " />
<glyph glyph-name="D" unicode="D" horiz-adv-x="481" d="M327 474 C379 474 419 443 407 379 L374 190 C363 126 312 94 260 94 L166 94 L233 474 L327 474 Z M241 0 C361 0 448 79 467 191 L500 377 C519 489 462 568 341 568 L206 568 C181 568 153 547 148 520 L65 48 C60 21 81 0 106 0 L241 0 Z " />
<glyph glyph-name="E" unicode="E" horiz-adv-x="420" d="M390 0 L406 94 L166 94 L187 212 L355 212 L371 306 L203 306 L233 474 L473 474 L490 568 L205 568 C178 568 153 547 148 520 L65 48 C60 21 78 0 105 0 L390 0 Z " />
<glyph glyph-name="F" unicode="F" horiz-adv-x="392" d="M57 0 L150 0 L187 212 L355 212 L371 306 L203 306 L233 474 L473 474 L490 568 L205 568 C178 568 153 547 148 520 L57 0 Z " />
<glyph glyph-name="G" unicode="G" horiz-adv-x="479" d="M207 383 C219 450 272 480 324 480 C375 480 412 447 404 378 L498 378 C514 494 459 575 341 575 C222 575 133 494 114 383 L79 187 C60 74 118 -5 239 -5 C361 -5 445 74 464 187 L477 257 C481 282 463 306 438 306 L298 306 L282 211 L376 211 L371 185 C360 120 306 84 254 84 C202 84 161 121 172 186 L207 383 Z " />
<glyph glyph-name="H" unicode="H" horiz-adv-x="497" d="M401 307 L204 307 L250 568 L157 568 L57 0 L150 0 L187 211 L384 211 L347 0 L440 0 L540 568 L447 568 L401 307 Z " />
<glyph glyph-name="I" unicode="I" horiz-adv-x="217" d="M62 0 L155 0 L255 568 L162 568 L62 0 Z " />
<glyph glyph-name="J" unicode="J" horiz-adv-x="411" d="M450 520 C455 547 435 568 410 568 L222 568 L205 476 L349 476 L297 180 C286 115 250 84 199 84 C146 84 117 117 128 181 L33 181 C14 73 59 -5 184 -5 C304 -5 372 74 391 186 L450 520 Z " />
<glyph glyph-name="K" unicode="K" horiz-adv-x="494" d="M482 0 L375 338 C442 397 531 496 579 568 L477 568 C385 451 286 371 206 320 L250 568 L157 568 L57 0 L150 0 L187 210 C214 225 261 254 293 275 L378 0 L482 0 Z " />
<glyph glyph-name="L" unicode="L" horiz-adv-x="424" d="M407 0 L423 94 L166 94 L250 568 L157 568 L65 48 C60 21 78 0 105 0 L407 0 Z " />
<glyph glyph-name="M" unicode="M" horiz-adv-x="637" d="M410 526 C391 554 362 575 311 575 C189 575 138 494 119 383 L52 0 L145 0 L212 385 C224 450 246 481 294 481 C341 481 351 450 339 385 L272 0 L365 0 L432 385 C444 450 464 481 511 481 C559 481 571 450 559 385 L492 0 L585 0 L652 383 C671 494 652 575 528 575 C477 575 441 554 410 526 L410 526 Z " />
<glyph glyph-name="N" unicode="N" horiz-adv-x="492" d="M347 0 L440 0 L507 383 C526 494 468 575 347 575 C228 575 138 494 119 383 L52 0 L145 0 L212 383 C224 448 278 481 330 481 C383 481 425 450 414 383 L347 0 Z " />
<glyph glyph-name="O" unicode="O" horiz-adv-x="482" d="M502 383 C521 494 463 575 342 575 C223 575 133 494 114 383 L79 187 C60 74 120 -5 240 -5 C360 -5 448 74 467 187 L502 383 Z M374 182 C361 115 308 84 255 84 C203 84 159 115 172 182 L207 383 C219 448 273 481 325 481 C378 481 420 450 409 383 L374 182 Z " />
<glyph glyph-name="P" unicode="P" horiz-adv-x="437" d="M233 474 L330 474 C383 474 419 441 408 377 C396 310 349 279 296 279 L199 279 L233 474 Z M206 568 C181 568 153 547 148 520 L57 0 L150 0 L182 185 L275 185 C398 185 479 264 501 377 C520 489 466 568 343 568 L206 568 Z " />
<glyph glyph-name="Q" unicode="Q" horiz-adv-x="482" d="M502 383 C521 494 463 575 342 575 C223 575 133 494 114 383 L79 187 C64 98 97 29 173 4 L170 -16 C155 -100 202 -155 297 -155 C393 -155 458 -90 475 6 L382 6 C371 -50 346 -66 313 -66 C282 -66 256 -57 261 -25 L265 -3 C372 8 448 83 467 187 L502 383 Z M374 182 C361 115 308 84 255 84 C203 84 159 115 172 182 L207 383 C219 448 273 481 325 481 C378 481 420 450 409 383 L374 182 Z " />
<glyph glyph-name="R" unicode="R" horiz-adv-x="480" d="M206 320 L233 474 L338 474 C392 474 431 462 420 399 C409 335 364 320 311 320 L206 320 Z M205 568 C180 568 153 547 148 520 L57 0 L150 0 L189 224 L314 224 C345 224 372 210 365 174 L335 0 L428 0 L458 174 C466 218 457 248 437 271 C478 298 504 348 513 399 C533 512 472 568 351 568 L205 568 Z " />
<glyph glyph-name="S" unicode="S" horiz-adv-x="462" d="M482 376 C501 505 440 575 328 575 C209 575 129 525 108 405 C76 221 372 240 360 167 C350 104 289 84 256 84 C212 84 156 108 164 188 L70 188 C54 60 134 -5 241 -5 C369 -5 438 76 454 168 C486 341 187 313 203 406 C216 482 274 481 311 481 C372 481 397 437 389 376 L482 376 Z " />
<glyph glyph-name="T" unicode="T" horiz-adv-x="436" d="M110 474 L255 474 L172 0 L265 0 L348 474 L492 474 L509 568 L127 568 L110 474 Z " />
<glyph glyph-name="U" unicode="U" horiz-adv-x="492" d="M447 568 L379 182 C366 115 313 84 260 84 C208 84 164 115 177 182 L245 568 L152 568 L84 187 C65 74 125 -5 245 -5 C365 -5 453 74 472 187 L540 568 L447 568 Z " />
<glyph glyph-name="V" unicode="V" horiz-adv-x="494" d="M261 0 C323 21 464 121 477 203 L542 568 L449 568 L386 210 C378 170 306 119 271 100 L257 100 C228 118 174 170 182 210 L245 568 L152 568 L87 203 C74 121 176 22 233 0 L261 0 Z " />
<glyph glyph-name="W" unicode="W" horiz-adv-x="637" d="M325 44 C345 16 375 -5 426 -5 C549 -5 598 74 617 187 L685 568 L592 568 L523 180 C512 115 489 84 441 84 C394 84 385 115 396 180 L465 568 L372 568 L303 180 C292 115 271 84 224 84 C176 84 165 115 176 180 L245 568 L152 568 L84 187 C65 74 86 -5 209 -5 C260 -5 296 16 325 44 L325 44 Z " />
<glyph glyph-name="X" unicode="X" horiz-adv-x="476" d="M283 236 C335 233 371 207 360 140 L336 0 L429 0 L453 140 C464 197 445 247 413 283 C460 318 493 365 504 428 L529 568 L436 568 L411 428 C399 361 351 335 300 332 L292 332 C242 335 202 362 215 428 L240 568 L147 568 L122 428 C111 365 126 318 161 283 C117 247 82 197 71 140 L47 0 L140 0 L164 140 C176 207 224 236 275 236 L283 236 Z " />
<glyph glyph-name="Y" unicode="Y" horiz-adv-x="478" d="M318 185 C407 209 480 284 496 374 L531 568 L438 568 L403 374 C392 308 339 274 288 274 C236 274 194 308 205 374 L240 568 L147 568 L112 374 C97 283 145 210 224 185 L192 0 L286 0 L318 185 Z " />
<glyph glyph-name="Z" unicode="Z" horiz-adv-x="461" d="M37 0 L424 0 L440 94 L159 94 C240 195 494 394 510 488 L524 568 L137 568 L120 474 L404 474 C340 374 101 190 53 91 L37 0 Z " />
<glyph glyph-name="bracketleft" unicode="&#x5b;" horiz-adv-x="314" d="M261 632 L368 632 L385 726 L232 726 C207 726 181 704 176 677 L34 -129 C29 -154 47 -177 72 -177 L225 -177 L242 -83 L135 -83 L261 632 Z " />
<glyph glyph-name="backslash" unicode="&#x5c;" horiz-adv-x="522" d="M275 713 L182 713 L349 -127 L442 -127 L275 713 Z " />
<glyph glyph-name="bracketright" unicode="&#x5d;" horiz-adv-x="314" d="M149 -83 L42 -83 L25 -177 L178 -177 C203 -177 229 -154 234 -129 L376 677 C381 704 363 726 338 726 L185 726 L168 632 L275 632 L149 -83 Z " />
<glyph glyph-name="asciicircum" unicode="&#x5e;" horiz-adv-x="453" d="M284 568 L124 383 L235 383 C258 411 286 445 309 473 L352 383 L463 383 L370 568 L284 568 Z " />
<glyph glyph-name="underscore" unicode="&#x5f;" horiz-adv-x="404" d="M39 -99 L329 -99 L346 -5 L56 -5 L39 -99 Z " />
<glyph glyph-name="grave" unicode="&#x60;" horiz-adv-x="296" d="M222 397 L309 397 L264 568 L157 568 L222 397 Z " />
<glyph glyph-name="a" unicode="a" horiz-adv-x="388" d="M176 263 C188 299 217 317 244 317 C273 317 300 301 295 269 L289 238 L200 238 C136 238 74 209 58 121 C42 33 108 -5 188 -5 C268 -5 348 40 364 132 L388 269 C404 358 342 411 261 411 C180 411 99 353 83 263 L176 263 Z M150 118 C155 143 172 150 184 150 L274 150 L270 127 C263 95 232 84 203 84 C177 84 145 91 150 118 L150 118 Z " />
<glyph glyph-name="b" unicode="b" horiz-adv-x="408" d="M408 269 C424 358 370 411 286 411 C265 411 243 407 219 395 L250 568 L157 568 L81 137 C65 48 125 -5 208 -5 C290 -5 369 48 385 137 L408 269 Z M223 84 C194 84 166 100 173 132 L197 271 C204 302 236 317 264 317 C293 317 320 301 315 269 L291 132 C284 100 252 84 223 84 L223 84 Z " />
<glyph glyph-name="c" unicode="c" horiz-adv-x="386" d="M187 269 C194 301 225 317 253 317 C284 317 309 300 301 255 L395 255 C413 358 353 411 270 411 C187 411 110 358 94 269 L71 137 C55 48 115 -5 197 -5 C279 -5 357 42 376 146 L282 146 C274 101 243 84 212 84 C184 84 156 100 163 132 L187 269 Z " />
<glyph glyph-name="d" unicode="d" horiz-adv-x="408" d="M71 137 C55 48 115 -5 198 -5 C280 -5 359 48 375 137 L451 568 L358 568 L327 395 C307 407 287 411 266 411 C183 411 110 358 94 269 L71 137 Z M213 84 C184 84 156 100 163 132 L187 269 C194 301 225 317 254 317 C282 317 310 302 305 271 L281 132 C274 100 242 84 213 84 L213 84 Z " />
<glyph glyph-name="e" unicode="e" horiz-adv-x="388" d="M182 240 L187 269 C194 301 225 317 253 317 C282 317 308 299 304 268 L182 240 Z M398 269 C414 358 352 411 270 411 C187 411 110 358 94 269 L71 137 C55 48 115 -5 197 -5 C279 -5 357 42 376 146 L282 146 C274 101 243 84 212 84 C184 84 156 100 163 132 L165 145 L342 185 C369 192 387 204 391 231 L398 269 Z " />
<glyph glyph-name="f" unicode="f" horiz-adv-x="323" d="M138 311 L84 0 L177 0 L231 311 L344 311 L361 405 L248 405 L257 456 C261 480 274 492 295 492 C316 492 324 481 320 459 L413 459 C426 531 388 585 313 585 C240 585 179 538 164 459 L155 405 L83 405 L66 311 L138 311 Z " />
<glyph glyph-name="g" unicode="g" horiz-adv-x="398" d="M254 317 C283 317 310 301 305 269 L280 130 C275 99 241 84 213 84 C184 84 156 100 163 132 L187 269 C194 301 225 317 254 317 L254 317 Z M248 -53 C243 -84 219 -101 188 -101 C160 -101 135 -87 143 -40 L51 -40 C33 -143 90 -193 171 -193 C252 -193 325 -141 341 -53 L398 269 C414 358 354 411 271 411 C189 411 110 358 94 269 L71 137 C55 48 109 -5 193 -5 C214 -5 235 -1 259 11 L248 -53 Z " />
<glyph glyph-name="h" unicode="h" horiz-adv-x="413" d="M268 0 L361 0 L408 269 C424 358 370 411 286 411 C265 411 243 407 219 395 L250 568 L157 568 L57 0 L150 0 L197 271 C204 302 236 317 264 317 C293 317 320 301 315 269 L268 0 Z " />
<glyph glyph-name="i" unicode="i" horiz-adv-x="207" d="M57 0 L150 0 L221 405 L128 405 L57 0 Z M134 488 C127 457 148 434 180 434 C211 434 238 457 245 488 C250 520 230 544 199 544 C167 544 139 520 134 488 L134 488 Z " />
<glyph glyph-name="j" unicode="j" horiz-adv-x="207" d="M-71 -178 C-50 -186 -18 -193 1 -193 C73 -193 121 -159 136 -79 L221 405 L128 405 L45 -65 C40 -92 34 -102 15 -102 C4 -102 -13 -100 -36 -95 L-71 -178 Z M134 488 C127 457 148 434 180 434 C211 434 238 457 245 488 C250 520 230 544 199 544 C167 544 139 520 134 488 L134 488 Z " />
<glyph glyph-name="k" unicode="k" horiz-adv-x="413" d="M177 157 L181 157 C204 157 233 166 254 174 L291 0 L391 0 L342 231 C391 274 436 340 447 405 L354 405 C341 334 254 251 198 251 L194 251 L250 568 L157 568 L57 0 L150 0 L177 157 Z " />
<glyph glyph-name="l" unicode="l" horiz-adv-x="207" d="M57 0 L150 0 L250 568 L157 568 L57 0 Z " />
<glyph glyph-name="m" unicode="m" horiz-adv-x="536" d="M314 0 L363 280 C367 305 386 317 407 317 C430 317 444 305 440 280 L391 0 L484 0 L534 284 C547 361 497 411 423 411 C395 411 360 401 335 380 C316 401 285 411 257 411 C181 411 115 361 102 284 L52 0 L145 0 L194 280 C198 305 216 317 239 317 C260 317 275 305 271 280 L222 0 L314 0 Z " />
<glyph glyph-name="n" unicode="n" horiz-adv-x="406" d="M275 411 C192 411 115 358 99 269 L52 0 L145 0 L191 266 C198 306 230 317 258 317 C286 317 314 306 307 266 L261 0 L354 0 L401 269 C417 358 357 411 275 411 L275 411 Z " />
<glyph glyph-name="o" unicode="o" horiz-adv-x="397" d="M397 269 C413 358 353 411 270 411 C187 411 110 358 94 269 L71 137 C55 48 115 -5 197 -5 C279 -5 358 48 374 137 L397 269 Z M212 84 C184 84 156 100 163 132 L187 269 C194 301 225 317 253 317 C283 317 309 301 304 269 L280 132 C273 100 243 84 212 84 L212 84 Z " />
<glyph glyph-name="p" unicode="p" horiz-adv-x="408" d="M408 269 C424 358 364 411 281 411 C199 411 120 358 104 269 L22 -193 L115 -193 L151 11 C171 -1 192 -5 213 -5 C296 -5 369 48 385 137 L408 269 Z M264 317 C293 317 320 301 315 269 L291 132 C284 100 252 84 223 84 C195 84 167 99 172 130 L197 269 C204 301 235 317 264 317 L264 317 Z " />
<glyph glyph-name="q" unicode="q" horiz-adv-x="408" d="M71 137 C55 48 109 -5 193 -5 C214 -5 235 -1 259 11 L223 -193 L316 -193 L398 269 C414 358 354 411 271 411 C189 411 110 358 94 269 L71 137 Z M254 317 C283 317 310 301 305 269 L280 130 C275 99 241 84 213 84 C184 84 156 100 163 132 L187 269 C194 301 225 317 254 317 L254 317 Z " />
<glyph glyph-name="r" unicode="r" horiz-adv-x="324" d="M363 261 C379 356 331 411 258 411 C185 411 115 361 102 284 L52 0 L145 0 L192 271 C199 310 218 317 241 317 C262 317 277 300 270 261 L363 261 Z " />
<glyph glyph-name="s" unicode="s" horiz-adv-x="374" d="M242 317 C271 317 295 308 288 268 L381 268 C397 364 343 411 259 411 C172 411 102 369 86 281 C62 155 278 161 270 121 C264 91 225 84 203 84 C175 84 146 95 153 136 L60 136 C44 39 108 -5 188 -5 C281 -5 348 41 363 121 C383 247 171 234 179 282 C184 317 224 317 242 317 L242 317 Z " />
<glyph glyph-name="t" unicode="t" horiz-adv-x="332" d="M83 405 L66 311 L138 311 L105 122 C90 45 134 -5 207 -5 C283 -5 338 55 351 123 L258 123 C255 104 243 84 222 84 C201 84 193 96 198 121 L231 311 L338 311 L355 405 L248 405 L277 568 L184 568 L155 405 L83 405 Z " />
<glyph glyph-name="u" unicode="u" horiz-adv-x="406" d="M202 -5 C285 -5 362 48 378 137 L425 405 L332 405 L284 135 C277 95 245 84 217 84 C189 84 161 95 168 135 L216 405 L123 405 L76 137 C60 48 120 -5 202 -5 L202 -5 Z " />
<glyph glyph-name="v" unicode="v" horiz-adv-x="395" d="M212 98 C187 113 163 136 170 173 L211 405 L118 405 L76 166 C63 86 135 24 191 0 L206 0 C268 22 361 84 377 166 L419 405 L326 405 L285 173 C278 137 247 113 218 98 L212 98 Z " />
<glyph glyph-name="w" unicode="w" horiz-adv-x="536" d="M293 405 L243 121 C238 96 219 84 198 84 C175 84 161 96 166 121 L216 405 L123 405 L73 122 C60 45 108 -5 184 -5 C212 -5 245 5 272 26 C291 5 322 -5 350 -5 C426 -5 490 45 505 122 L555 405 L462 405 L412 121 C407 96 389 84 366 84 C345 84 330 96 335 121 L385 405 L293 405 Z " />
<glyph glyph-name="x" unicode="x" horiz-adv-x="378" d="M216 157 L220 157 C248 154 272 140 267 109 L248 0 L341 0 L360 109 C367 142 348 181 331 204 C359 227 386 260 393 299 L412 405 L319 405 L300 299 C295 267 265 254 237 251 L228 251 C200 254 177 267 182 299 L201 405 L108 405 L89 299 C82 263 97 226 114 203 C89 180 63 145 56 109 L37 0 L130 0 L149 109 C154 141 187 157 216 157 L216 157 Z " />
<glyph glyph-name="y" unicode="y" horiz-adv-x="413" d="M427 405 L334 405 L285 130 C280 99 246 84 218 84 C189 84 161 100 168 132 L216 405 L123 405 L76 137 C60 48 114 -5 198 -5 C219 -5 240 -1 264 11 L253 -53 C248 -84 224 -101 193 -101 C165 -101 140 -87 148 -40 L56 -40 C38 -143 95 -193 176 -193 C257 -193 330 -141 346 -53 L427 405 Z " />
<glyph glyph-name="z" unicode="z" horiz-adv-x="364" d="M40 0 L324 0 L340 92 L159 92 C213 168 355 265 384 341 L395 405 L111 405 L95 313 L260 313 C203 253 67 150 51 68 L40 0 Z " />
<glyph glyph-name="braceleft" unicode="&#x7b;" horiz-adv-x="384" d="M198 365 C193 340 181 322 164 322 L113 322 L96 226 L147 226 C164 224 171 211 167 188 L125 -47 C110 -127 150 -177 226 -177 L295 -177 L312 -83 L242 -83 C222 -83 214 -71 218 -46 L260 192 C266 225 263 252 252 273 C273 296 283 326 290 361 L331 594 C336 619 349 632 368 632 L438 632 L455 726 L386 726 C310 726 253 675 238 595 L198 365 Z " />
<glyph glyph-name="bar" unicode="&#x7c;" horiz-adv-x="207" d="M25 -177 L118 -177 L278 726 L185 726 L25 -177 Z " />
<glyph glyph-name="braceright" unicode="&#x7d;" horiz-adv-x="384" d="M354 595 C369 675 330 726 254 726 L185 726 L168 632 L238 632 C259 632 266 619 261 594 L220 361 C213 326 215 296 228 273 C209 252 196 225 190 192 L148 -46 C144 -71 132 -83 112 -83 L42 -83 L25 -177 L94 -177 C170 -177 226 -127 241 -47 L283 188 C287 211 298 224 315 226 L366 226 L383 322 L332 322 C315 322 309 340 314 365 L354 595 Z " />
<glyph glyph-name="asciitilde" unicode="&#x7e;" horiz-adv-x="434" d="M368 262 C341 245 324 236 307 236 C276 236 248 268 208 268 C173 268 138 250 95 218 L138 151 C165 168 176 174 191 174 C227 174 251 142 290 142 C325 142 367 162 411 194 L368 262 Z " />
<glyph glyph-name="uni00A0" unicode="&#xa0;" horiz-adv-x="199" d="" />
<glyph glyph-name="exclamdown" unicode="&#xa1;" horiz-adv-x="239" d="M66 -5 L172 -5 L235 400 L144 400 L66 -5 Z M146 506 C139 470 164 443 197 443 C233 443 264 470 271 506 C278 539 255 568 219 568 C186 568 153 539 146 506 L146 506 Z " />
<glyph glyph-name="cent" unicode="&#xa2;" horiz-adv-x="499" d="M181 -99 L274 -99 L291 -1 C387 15 452 89 475 192 L381 192 C364 123 315 84 264 84 C212 84 171 121 182 186 L217 383 C229 450 282 480 334 480 C385 480 422 447 414 378 L508 378 C521 479 481 554 392 571 L408 662 L315 662 L299 570 C206 550 141 479 124 383 L89 187 C73 91 112 19 199 0 L181 -99 Z " />
<glyph glyph-name="sterling" unicode="&#xa3;" horiz-adv-x="464" d="M65 48 C60 21 78 0 105 0 L407 0 L423 94 L166 94 L187 214 L320 214 L337 310 L204 310 L226 435 C233 466 256 483 287 483 C315 483 339 469 331 422 L423 422 C441 525 384 575 303 575 C222 575 149 523 133 435 L65 48 Z " />
<glyph glyph-name="currency" unicode="&#xa4;" horiz-adv-x="519" d="M286 149 C255 149 235 175 242 206 C247 237 275 263 306 263 C337 263 358 237 353 206 C346 175 317 149 286 149 L286 149 Z M269 55 C305 55 339 71 370 92 C382 77 399 60 410 47 L482 116 L431 171 C438 183 439 195 442 206 C445 217 446 229 443 241 L514 296 L466 365 C451 352 427 335 410 320 C387 341 358 357 322 357 C286 357 252 341 221 320 C208 335 192 352 181 365 L109 296 L160 241 C153 229 152 217 149 206 C146 195 145 183 148 171 L77 116 L125 47 C140 60 162 77 181 92 C204 71 233 55 269 55 L269 55 Z " />
<glyph glyph-name="yen" unicode="&#xa5;" horiz-adv-x="498" d="M506 374 L541 568 L448 568 L413 374 C402 308 349 274 298 274 C246 274 204 308 215 374 L250 568 L157 568 L122 374 C107 283 155 210 234 185 L230 159 L132 159 L115 65 L213 65 L202 0 L296 0 L307 65 L405 65 L422 159 L324 159 L328 185 C417 209 490 284 506 374 L506 374 Z " />
<glyph glyph-name="brokenbar" unicode="&#xa6;" horiz-adv-x="207" d="M118 349 L211 349 L278 726 L185 726 L118 349 Z M25 -177 L118 -177 L185 200 L92 200 L25 -177 Z " />
<glyph glyph-name="section" unicode="&#xa7;" horiz-adv-x="421" d="M357 195 C387 218 405 248 412 285 C421 337 390 365 350 384 C295 410 223 418 228 446 C233 481 273 481 291 481 C320 481 344 472 337 432 L430 432 C446 528 392 575 308 575 C222 575 151 533 135 445 C128 410 140 388 159 369 C132 348 115 317 108 278 C84 152 299 159 291 118 C285 88 248 81 225 81 C197 81 168 92 175 133 L82 133 C66 36 128 -8 209 -8 C302 -8 369 38 384 118 C391 153 378 176 357 195 L357 195 Z M319 285 C313 255 274 248 252 248 C233 248 195 257 201 279 C206 314 246 314 264 314 C284 314 322 306 319 285 L319 285 Z " />
<glyph glyph-name="dieresis" unicode="&#xa8;" horiz-adv-x="411" d="M147 512 C140 479 165 450 198 450 C234 450 265 479 272 512 C279 548 256 575 220 575 C187 575 154 548 147 512 L147 512 Z M319 512 C312 479 337 450 370 450 C406 450 437 479 444 512 C451 548 428 575 392 575 C359 575 326 548 319 512 L319 512 Z " />
<glyph glyph-name="copyright" unicode="&#xa9;" horiz-adv-x="694" d="M447 575 C289 575 134 444 107 284 C78 125 187 -5 345 -5 C506 -5 658 125 687 284 C714 444 608 575 447 575 L447 575 Z M358 72 C246 72 163 172 184 284 C203 398 322 497 433 497 C548 497 629 398 610 284 C589 172 474 72 358 72 L358 72 Z M357 327 C362 354 388 368 411 368 C436 368 458 354 451 315 L529 315 C545 401 493 445 425 445 C357 445 292 402 279 327 L263 235 C250 160 299 117 367 117 C435 117 500 157 516 242 L438 242 C431 205 405 191 380 191 C357 191 335 203 340 230 L357 327 Z " />
<glyph glyph-name="ordfeminine" unicode="&#xaa;" horiz-adv-x="350" d="M119 356 C108 293 161 259 220 259 C282 259 343 297 357 365 L375 470 C386 537 338 575 276 575 C215 575 151 536 138 463 L217 463 C222 490 239 495 262 495 C286 495 300 483 296 460 L293 447 L233 447 C187 447 130 421 119 356 L119 356 Z M197 356 C200 375 214 374 227 374 L280 374 L278 361 C275 344 258 338 234 338 C211 338 194 341 197 356 L197 356 Z " />
<glyph glyph-name="guillemotleft" unicode="&#xab;" horiz-adv-x="511" d="M93 207 L138 0 L238 0 L193 207 L310 414 L210 414 L93 207 Z M309 207 L354 0 L454 0 L409 207 L526 414 L426 414 L309 207 Z " />
<glyph glyph-name="logicalnot" unicode="&#xac;" horiz-adv-x="464" d="M100 249 L84 155 L341 155 L321 44 L414 44 L442 201 C446 226 429 249 402 249 L100 249 Z " />
<glyph glyph-name="uni00AD" unicode="&#xad;" horiz-adv-x="198" d="" />
<glyph glyph-name="registered" unicode="&#xae;" horiz-adv-x="694" d="M447 575 C289 575 134 444 107 284 C78 125 187 -5 345 -5 C506 -5 658 125 687 284 C714 444 608 575 447 575 L447 575 Z M358 72 C246 72 163 172 184 284 C203 398 322 497 433 497 C548 497 629 398 610 284 C589 172 474 72 358 72 L358 72 Z M374 291 L385 353 L403 353 C431 353 454 352 447 321 C442 290 420 291 392 291 L374 291 Z M351 430 C335 430 318 415 315 400 L268 134 L346 134 L360 214 L389 214 C405 214 419 206 416 189 L406 134 L484 134 L497 206 C501 229 494 247 485 260 C506 277 522 306 527 333 C539 400 502 430 433 430 L351 430 Z " />
<glyph glyph-name="macron" unicode="&#xaf;" horiz-adv-x="404" d="M142 487 L432 487 L448 575 L158 575 L142 487 Z " />
<glyph glyph-name="degree" unicode="&#xb0;" horiz-adv-x="347" d="M273 568 C212 568 147 517 136 451 C125 390 170 335 232 335 C299 335 358 390 369 451 C381 518 340 568 273 568 L273 568 Z M245 410 C230 410 214 423 219 451 C223 475 244 489 259 489 C278 489 293 475 289 451 C284 420 264 410 245 410 L245 410 Z " />
<glyph glyph-name="plusminus" unicode="&#xb1;" horiz-adv-x="401" d="M404 342 L306 342 L325 450 L232 450 L213 342 L117 342 L100 248 L196 248 L177 141 L270 141 L289 248 L387 248 L404 342 Z M57 0 L344 0 L360 94 L73 94 L57 0 Z " />
<glyph glyph-name="twosuperior" unicode="&#xb2;" horiz-adv-x="324" d="M266 473 C255 412 127 364 119 318 L109 263 L313 263 L327 342 L244 342 C295 382 335 418 346 473 C357 533 324 575 259 575 C195 575 149 527 138 462 L220 462 C227 495 238 496 250 496 C265 496 269 492 266 473 L266 473 Z " />
<glyph glyph-name="threesuperior" unicode="&#xb3;" horiz-adv-x="321" d="M218 467 C222 491 239 496 247 496 C259 496 272 493 269 478 C266 469 264 452 252 452 L230 452 L219 389 L238 389 C253 389 252 378 249 365 C246 352 237 345 220 345 C199 345 198 357 202 377 L123 377 C112 312 139 264 206 264 C266 264 314 291 326 355 C329 374 328 398 311 418 C332 435 344 457 348 478 C357 538 326 575 261 575 C196 575 151 532 139 467 L218 467 Z " />
<glyph glyph-name="acute" unicode="&#xb4;" horiz-adv-x="326" d="M135 443 L176 378 L356 497 L304 575 L135 443 Z " />
<glyph glyph-name="mu" unicode="&#xb5;" horiz-adv-x="406" d="M17 -193 L110 -193 L145 4 C162 -2 181 -5 202 -5 C285 -5 362 48 378 137 L425 405 L332 405 L284 135 C277 95 245 84 217 84 C189 84 161 95 168 135 L216 405 L123 405 L17 -193 Z " />
<glyph glyph-name="paragraph" unicode="&#xb6;" horiz-adv-x="471" d="M294 568 C219 568 142 491 129 411 C116 335 157 274 229 257 L184 0 L277 0 L360 474 L404 474 L321 0 L414 0 L505 520 C510 547 490 568 465 568 L294 568 Z " />
<glyph glyph-name="periodcentered" unicode="&#xb7;" horiz-adv-x="260" d="M91 197 C84 158 113 125 152 125 C193 125 230 158 237 197 C245 240 220 270 177 270 C138 270 99 240 91 197 L91 197 Z " />
<glyph glyph-name="cedilla" unicode="&#xb8;" horiz-adv-x="318" d="M167 -5 C182 -24 189 -41 187 -56 C184 -71 161 -75 145 -75 C120 -75 81 -67 73 -56 L38 -107 C66 -130 92 -135 129 -135 C176 -135 241 -116 249 -65 C253 -42 249 -24 238 -5 L167 -5 Z " />
<glyph glyph-name="onesuperior" unicode="&#xb9;" horiz-adv-x="268" d="M147 515 L132 429 L214 471 L178 269 L258 269 L307 550 C310 565 301 575 286 575 L261 575 L147 515 Z " />
<glyph glyph-name="ordmasculine" unicode="&#xba;" horiz-adv-x="347" d="M273 568 C212 568 147 517 136 451 C125 390 170 335 232 335 C299 335 358 390 369 451 C381 518 340 568 273 568 L273 568 Z M245 410 C230 410 214 423 219 451 C223 475 244 489 259 489 C278 489 293 475 289 451 C284 420 264 410 245 410 L245 410 Z " />
<glyph glyph-name="guillemotright" unicode="&#xbb;" horiz-adv-x="511" d="M445 414 L345 414 L390 207 L273 0 L373 0 L490 207 L445 414 Z M229 414 L129 414 L174 207 L57 0 L157 0 L274 207 L229 414 Z " />
<glyph glyph-name="onequarter" unicode="&#xbc;" horiz-adv-x="640" d="M147 515 L132 429 L214 471 L178 269 L258 269 L307 550 C310 565 301 575 286 575 L261 575 L147 515 Z M159 0 L237 0 L553 568 L475 568 L159 0 Z M351 87 C348 72 357 62 372 62 L493 62 L483 0 L562 0 L611 282 C614 299 608 307 591 307 L562 307 C555 307 549 304 542 299 L364 133 C361 130 358 126 357 121 L351 87 Z M451 134 L517 194 L506 134 L451 134 Z " />
<glyph glyph-name="onehalf" unicode="&#xbd;" horiz-adv-x="642" d="M147 515 L132 429 L214 471 L178 269 L258 269 L307 550 C310 565 301 575 286 575 L261 575 L147 515 Z M159 0 L237 0 L553 568 L475 568 L159 0 Z M538 210 C527 149 398 101 390 55 L381 0 L585 0 L598 79 L515 79 C566 119 607 155 618 210 C629 270 596 312 531 312 C467 312 421 264 410 199 L492 199 C497 232 510 233 522 233 C537 233 541 229 538 210 L538 210 Z " />
<glyph glyph-name="threequarters" unicode="&#xbe;" horiz-adv-x="646" d="M378 87 C375 72 384 62 399 62 L520 62 L510 0 L589 0 L638 282 C641 299 635 307 618 307 L589 307 C582 307 576 304 569 299 L391 133 C388 130 385 126 384 121 L378 87 Z M478 134 L544 194 L533 134 L478 134 Z M189 0 L267 0 L583 568 L505 568 L189 0 Z M218 467 C222 491 239 496 247 496 C259 496 272 493 269 478 C266 469 264 452 252 452 L230 452 L219 389 L238 389 C253 389 252 378 249 365 C246 352 237 345 220 345 C199 345 198 357 202 377 L123 377 C112 312 139 264 206 264 C266 264 314 291 326 355 C329 374 328 398 311 418 C332 435 344 457 348 478 C357 538 326 575 261 575 C196 575 151 532 139 467 L218 467 Z " />
<glyph glyph-name="questiondown" unicode="&#xbf;" horiz-adv-x="462" d="M88 178 C68 67 109 -5 232 -5 C353 -5 415 65 438 189 L341 189 C326 110 296 89 247 89 C196 89 169 113 181 178 C203 262 319 288 338 389 L343 415 L249 415 L246 397 C235 339 107 277 88 178 L88 178 Z M376 513 C383 546 358 575 325 575 C289 575 258 546 251 513 C244 477 267 450 303 450 C336 450 369 477 376 513 L376 513 Z " />
<glyph glyph-name="Agrave" unicode="&#xc0;" horiz-adv-x="492" d="M353 836 L273 758 L411 639 L476 704 L353 836 Z M401 307 L199 307 L212 383 C224 448 278 481 330 481 C383 481 425 450 414 383 L401 307 Z M384 211 L347 0 L440 0 L507 383 C526 494 468 575 347 575 C228 575 138 494 119 383 L52 0 L145 0 L182 211 L384 211 Z " />
<glyph glyph-name="Aacute" unicode="&#xc1;" horiz-adv-x="492" d="M264 704 L305 639 L485 758 L433 836 L264 704 Z M212 383 C224 448 278 481 330 481 C383 481 425 450 414 383 L401 307 L199 307 L212 383 Z M384 211 L347 0 L440 0 L507 383 C526 494 468 575 347 575 C228 575 138 494 119 383 L52 0 L145 0 L182 211 L384 211 Z " />
<glyph glyph-name="Acircumflex" unicode="&#xc2;" horiz-adv-x="492" d="M433 824 L519 639 L413 639 L374 731 L304 639 L196 639 L347 824 L433 824 Z M401 307 L199 307 L212 383 C224 448 278 481 330 481 C383 481 425 450 414 383 L401 307 Z M384 211 L347 0 L440 0 L507 383 C526 494 468 575 347 575 C228 575 138 494 119 383 L52 0 L145 0 L182 211 L384 211 Z " />
<glyph glyph-name="Atilde" unicode="&#xc3;" horiz-adv-x="492" d="M212 383 C224 448 278 481 330 481 C383 481 425 450 414 383 L401 307 L199 307 L212 383 Z M384 211 L347 0 L440 0 L507 383 C526 494 468 575 347 575 C228 575 138 494 119 383 L52 0 L145 0 L182 211 L384 211 Z M527 691 C484 659 441 639 406 639 C366 639 344 671 308 671 C293 671 282 665 255 648 L212 715 C255 747 289 765 324 765 C364 765 392 733 424 733 C441 733 457 742 484 759 L527 691 Z " />
<glyph glyph-name="Adieresis" unicode="&#xc4;" horiz-adv-x="492" d="M212 383 C224 448 278 481 330 481 C383 481 425 450 414 383 L401 307 L199 307 L212 383 Z M384 211 L347 0 L440 0 L507 383 C526 494 468 575 347 575 C228 575 138 494 119 383 L52 0 L145 0 L182 211 L384 211 Z M221 701 C214 668 239 639 272 639 C308 639 339 668 346 701 C353 737 330 764 294 764 C261 764 228 737 221 701 L221 701 Z M393 701 C386 668 411 639 444 639 C480 639 511 668 518 701 C525 737 502 764 466 764 C433 764 400 737 393 701 L393 701 Z " />
<glyph glyph-name="Aring" unicode="&#xc5;" horiz-adv-x="492" d="M212 383 C224 448 278 481 330 481 C383 481 425 450 414 383 L401 307 L199 307 L212 383 Z M384 211 L347 0 L440 0 L507 383 C526 494 468 575 347 575 C228 575 138 494 119 383 L52 0 L145 0 L182 211 L384 211 Z M396 855 C338 855 280 803 269 746 C258 689 302 639 358 639 C416 639 474 689 485 746 C496 803 452 855 396 855 L396 855 Z M371 713 C358 713 344 723 348 746 C352 770 370 780 383 780 C396 780 410 770 406 746 C402 723 384 713 371 713 L371 713 Z " />
<glyph glyph-name="AE" unicode="&#xc6;" horiz-adv-x="704" d="M518 481 L758 481 L775 575 L346 575 C227 575 138 494 119 383 L52 0 L145 0 L182 211 L378 211 L349 48 C344 21 362 0 389 0 L674 0 L690 94 L450 94 L471 212 L639 212 L655 306 L487 306 L518 481 Z M425 481 L395 307 L199 307 L212 385 C224 450 275 481 327 481 L425 481 Z " />
<glyph glyph-name="Ccedilla" unicode="&#xc7;" horiz-adv-x="461" d="M498 378 C514 494 459 575 341 575 C222 575 133 494 114 383 L79 187 C60 74 118 -5 239 -5 C256 -5 273 -3 289 0 C292 -11 291 -24 290 -31 C287 -50 267 -53 251 -53 C226 -53 192 -45 185 -34 L150 -85 C177 -108 198 -113 235 -113 C284 -113 343 -96 353 -36 C356 -19 352 5 345 21 C406 53 448 115 465 192 L371 192 C354 123 305 84 254 84 C202 84 161 121 172 186 L207 383 C219 450 272 480 324 480 C375 480 412 447 404 378 L498 378 Z " />
<glyph glyph-name="Egrave" unicode="&#xc8;" horiz-adv-x="420" d="M390 0 L406 94 L166 94 L187 212 L355 212 L371 306 L203 306 L233 474 L473 474 L490 568 L205 568 C178 568 153 547 148 520 L65 48 C60 21 78 0 105 0 L390 0 Z M344 836 L264 758 L402 639 L467 704 L344 836 Z " />
<glyph glyph-name="Eacute" unicode="&#xc9;" horiz-adv-x="420" d="M390 0 L406 94 L166 94 L187 212 L355 212 L371 306 L203 306 L233 474 L473 474 L490 568 L205 568 C178 568 153 547 148 520 L65 48 C60 21 78 0 105 0 L390 0 Z M255 704 L296 639 L476 758 L424 836 L255 704 Z " />
<glyph glyph-name="Ecircumflex" unicode="&#xca;" horiz-adv-x="420" d="M390 0 L406 94 L166 94 L187 212 L355 212 L371 306 L203 306 L233 474 L473 474 L490 568 L205 568 C178 568 153 547 148 520 L65 48 C60 21 78 0 105 0 L390 0 Z M411 824 L489 639 L383 639 L353 735 L291 639 L183 639 L325 824 L411 824 Z " />
<glyph glyph-name="Edieresis" unicode="&#xcb;" horiz-adv-x="420" d="M390 0 L406 94 L166 94 L187 212 L355 212 L371 306 L203 306 L233 474 L473 474 L490 568 L205 568 C178 568 153 547 148 520 L65 48 C60 21 78 0 105 0 L390 0 Z M206 701 C199 668 224 639 257 639 C293 639 324 668 331 701 C338 737 315 764 279 764 C246 764 213 737 206 701 L206 701 Z M367 701 C360 668 385 639 418 639 C454 639 485 668 492 701 C499 737 476 764 440 764 C407 764 374 737 367 701 L367 701 Z " />
<glyph glyph-name="Igrave" unicode="&#xcc;" horiz-adv-x="207" d="M57 0 L150 0 L250 568 L157 568 L57 0 Z M211 836 L131 758 L269 639 L334 704 L211 836 Z " />
<glyph glyph-name="Iacute" unicode="&#xcd;" horiz-adv-x="207" d="M250 568 L157 568 L57 0 L150 0 L250 568 Z M121 704 L162 639 L342 758 L290 836 L121 704 Z " />
<glyph glyph-name="Icircumflex" unicode="&#xce;" horiz-adv-x="207" d="M250 568 L157 568 L57 0 L150 0 L250 568 Z M290 824 L356 639 L257 639 L232 735 L173 639 L72 639 L204 824 L290 824 Z " />
<glyph glyph-name="Idieresis" unicode="&#xcf;" horiz-adv-x="207" d="M250 568 L157 568 L57 0 L150 0 L250 568 Z M84 701 C77 668 102 639 135 639 C171 639 202 668 209 701 C216 737 193 764 157 764 C124 764 91 737 84 701 L84 701 Z M244 701 C237 668 262 639 295 639 C331 639 362 668 369 701 C376 737 353 764 317 764 C284 764 251 737 244 701 L244 701 Z " />
<glyph glyph-name="Eth" unicode="&#xd0;" horiz-adv-x="486" d="M102 231 L70 48 C65 21 86 0 111 0 L246 0 C366 0 453 79 472 191 L505 377 C524 489 467 568 346 568 L211 568 C186 568 158 547 153 520 L119 327 L59 327 L42 231 L102 231 Z M332 474 C384 474 424 443 412 379 L379 190 C368 126 317 94 265 94 L171 94 L195 231 L306 231 L323 327 L212 327 L238 474 L332 474 Z " />
<glyph glyph-name="Ntilde" unicode="&#xd1;" horiz-adv-x="492" d="M347 0 L440 0 L507 383 C526 494 468 575 347 575 C228 575 138 494 119 383 L52 0 L145 0 L212 383 C224 448 278 481 330 481 C383 481 425 450 414 383 L347 0 Z M527 691 C484 659 441 639 406 639 C366 639 344 671 308 671 C293 671 282 665 255 648 L212 715 C255 747 289 765 324 765 C364 765 392 733 424 733 C441 733 457 742 484 759 L527 691 Z " />
<glyph glyph-name="Ograve" unicode="&#xd2;" horiz-adv-x="482" d="M502 383 C521 494 463 575 342 575 C223 575 133 494 114 383 L79 187 C60 74 120 -5 240 -5 C360 -5 448 74 467 187 L502 383 Z M374 182 C361 115 308 84 255 84 C203 84 159 115 172 182 L207 383 C219 448 273 481 325 481 C378 481 420 450 409 383 L374 182 Z M348 836 L268 758 L406 639 L471 704 L348 836 Z " />
<glyph glyph-name="Oacute" unicode="&#xd3;" horiz-adv-x="482" d="M79 187 C60 74 120 -5 240 -5 C360 -5 448 74 467 187 L502 383 C521 494 463 575 342 575 C223 575 133 494 114 383 L79 187 Z M207 383 C219 448 273 481 325 481 C378 481 420 450 409 383 L374 182 C361 115 308 84 255 84 C203 84 159 115 172 182 L207 383 Z M259 704 L300 639 L480 758 L428 836 L259 704 Z " />
<glyph glyph-name="Ocircumflex" unicode="&#xd4;" horiz-adv-x="482" d="M502 383 C521 494 463 575 342 575 C223 575 133 494 114 383 L79 187 C60 74 120 -5 240 -5 C360 -5 448 74 467 187 L502 383 Z M374 182 C361 115 308 84 255 84 C203 84 159 115 172 182 L207 383 C219 448 273 481 325 481 C378 481 420 450 409 383 L374 182 Z M429 824 L507 639 L401 639 L371 735 L309 639 L201 639 L343 824 L429 824 Z " />
<glyph glyph-name="Otilde" unicode="&#xd5;" horiz-adv-x="482" d="M502 383 C521 494 463 575 342 575 C223 575 133 494 114 383 L79 187 C60 74 120 -5 240 -5 C360 -5 448 74 467 187 L502 383 Z M374 182 C361 115 308 84 255 84 C203 84 159 115 172 182 L207 383 C219 448 273 481 325 481 C378 481 420 450 409 383 L374 182 Z M522 691 C479 659 436 639 401 639 C361 639 339 671 303 671 C288 671 277 665 250 648 L207 715 C250 747 284 765 319 765 C359 765 387 733 419 733 C436 733 452 742 479 759 L522 691 Z " />
<glyph glyph-name="Odieresis" unicode="&#xd6;" horiz-adv-x="482" d="M502 383 C521 494 463 575 342 575 C223 575 133 494 114 383 L79 187 C60 74 120 -5 240 -5 C360 -5 448 74 467 187 L502 383 Z M374 182 C361 115 308 84 255 84 C203 84 159 115 172 182 L207 383 C219 448 273 481 325 481 C378 481 420 450 409 383 L374 182 Z M216 701 C209 668 234 639 267 639 C303 639 334 668 341 701 C348 737 325 764 289 764 C256 764 223 737 216 701 L216 701 Z M388 701 C381 668 406 639 439 639 C475 639 506 668 513 701 C520 737 497 764 461 764 C428 764 395 737 388 701 L388 701 Z " />
<glyph glyph-name="multiply" unicode="&#xd7;" horiz-adv-x="452" d="M250 138 L291 57 L405 57 L321 222 L463 388 L351 388 L279 304 L237 388 L125 388 L209 222 L67 57 L181 57 L250 138 Z " />
<glyph glyph-name="Oslash" unicode="&#xd8;" horiz-adv-x="482" d="M520 639 L450 639 L409 565 C389 572 367 575 342 575 C223 575 133 494 114 383 L79 187 C69 124 81 74 116 38 L63 -58 L135 -58 L171 6 C191 -1 214 -5 240 -5 C360 -5 448 74 467 187 L502 383 C513 447 499 499 462 534 L520 639 Z M207 383 C219 448 273 481 325 481 C336 481 348 479 359 476 L172 139 C169 151 169 165 172 182 L207 383 Z M374 182 C361 115 308 84 255 84 C242 84 229 86 217 90 L406 433 C411 419 412 402 409 383 L374 182 Z " />
<glyph glyph-name="Ugrave" unicode="&#xd9;" horiz-adv-x="492" d="M447 568 L379 182 C366 115 313 84 260 84 C208 84 164 115 177 182 L245 568 L152 568 L84 187 C65 74 125 -5 245 -5 C365 -5 453 74 472 187 L540 568 L447 568 Z M353 836 L273 758 L411 639 L476 704 L353 836 Z " />
<glyph glyph-name="Uacute" unicode="&#xda;" horiz-adv-x="492" d="M152 568 L84 187 C65 74 125 -5 245 -5 C365 -5 453 74 472 187 L540 568 L447 568 L379 182 C366 115 313 84 260 84 C208 84 164 115 177 182 L245 568 L152 568 Z M264 704 L305 639 L485 758 L433 836 L264 704 Z " />
<glyph glyph-name="Ucircumflex" unicode="&#xdb;" horiz-adv-x="492" d="M447 568 L379 182 C366 115 313 84 260 84 C208 84 164 115 177 182 L245 568 L152 568 L84 187 C65 74 125 -5 245 -5 C365 -5 453 74 472 187 L540 568 L447 568 Z M433 824 L519 639 L413 639 L374 731 L304 639 L196 639 L347 824 L433 824 Z " />
<glyph glyph-name="Udieresis" unicode="&#xdc;" horiz-adv-x="492" d="M447 568 L379 182 C366 115 313 84 260 84 C208 84 164 115 177 182 L245 568 L152 568 L84 187 C65 74 125 -5 245 -5 C365 -5 453 74 472 187 L540 568 L447 568 Z M221 701 C214 668 239 639 272 639 C308 639 339 668 346 701 C353 737 330 764 294 764 C261 764 228 737 221 701 L221 701 Z M393 701 C386 668 411 639 444 639 C480 639 511 668 518 701 C525 737 502 764 466 764 C433 764 400 737 393 701 L393 701 Z " />
<glyph glyph-name="Yacute" unicode="&#xdd;" horiz-adv-x="478" d="M318 185 C407 209 480 284 496 374 L531 568 L438 568 L403 374 C392 308 339 274 288 274 C236 274 194 308 205 374 L240 568 L147 568 L112 374 C97 283 145 210 224 185 L192 0 L286 0 L318 185 Z M255 704 L296 639 L476 758 L424 836 L255 704 Z " />
<glyph glyph-name="Thorn" unicode="&#xde;" horiz-adv-x="437" d="M217 383 L314 383 C367 383 403 351 392 286 C380 221 333 188 280 188 L183 188 L217 383 Z M235 477 L251 568 L157 568 L57 0 L150 0 L166 94 L259 94 C381 94 464 175 485 286 C504 398 450 477 327 477 L235 477 Z " />
<glyph glyph-name="germandbls" unicode="&#xdf;" horiz-adv-x="474" d="M207 0 L254 0 C374 0 454 69 473 178 C484 234 470 266 442 293 C469 320 487 360 495 405 C514 517 470 567 349 567 L320 567 C238 567 148 518 129 411 L57 0 L150 0 L222 410 C230 459 275 474 304 474 L333 474 C384 474 410 452 402 405 C393 356 348 336 296 336 L257 336 L241 244 L297 244 C349 244 388 225 380 178 C372 129 321 93 270 93 L223 93 L207 0 Z " />
<glyph glyph-name="agrave" unicode="&#xe0;" horiz-adv-x="388" d="M176 263 C188 299 217 317 244 317 C273 317 300 301 295 269 L289 238 L200 238 C136 238 74 209 58 121 C42 33 108 -5 188 -5 C268 -5 348 40 364 132 L388 269 C404 358 342 411 261 411 C180 411 99 353 83 263 L176 263 Z M150 118 C155 143 172 150 184 150 L274 150 L270 127 C263 95 232 84 203 84 C177 84 145 91 150 118 L150 118 Z M266 667 L186 589 L324 470 L389 535 L266 667 Z " />
<glyph glyph-name="aacute" unicode="&#xe1;" horiz-adv-x="388" d="M176 263 C188 299 217 317 244 317 C273 317 300 301 295 269 L289 238 L200 238 C136 238 74 209 58 121 C42 33 108 -5 188 -5 C268 -5 348 40 364 132 L388 269 C404 358 342 411 261 411 C180 411 99 353 83 263 L176 263 Z M150 118 C155 143 172 150 184 150 L274 150 L270 127 C263 95 232 84 203 84 C177 84 145 91 150 118 L150 118 Z M177 535 L218 470 L398 589 L346 667 L177 535 Z " />
<glyph glyph-name="acircumflex" unicode="&#xe2;" horiz-adv-x="388" d="M176 263 C188 299 217 317 244 317 C273 317 300 301 295 269 L289 238 L200 238 C136 238 74 209 58 121 C42 33 108 -5 188 -5 C268 -5 348 40 364 132 L388 269 C404 358 342 411 261 411 C180 411 99 353 83 263 L176 263 Z M150 118 C155 143 172 150 184 150 L274 150 L270 127 C263 95 232 84 203 84 C177 84 145 91 150 118 L150 118 Z M348 655 L415 470 L309 470 L290 562 L235 470 L127 470 L262 655 L348 655 Z " />
<glyph glyph-name="atilde" unicode="&#xe3;" horiz-adv-x="388" d="M176 263 C188 299 217 317 244 317 C273 317 300 301 295 269 L289 238 L200 238 C136 238 74 209 58 121 C42 33 108 -5 188 -5 C268 -5 348 40 364 132 L388 269 C404 358 342 411 261 411 C180 411 99 353 83 263 L176 263 Z M150 118 C155 143 172 150 184 150 L274 150 L270 127 C263 95 232 84 203 84 C177 84 145 91 150 118 L150 118 Z M417 520 C381 484 354 470 319 470 C293 470 261 495 228 495 C221 495 203 488 179 473 L144 540 C180 576 207 590 242 590 C268 590 300 565 333 565 C340 565 358 572 382 587 L417 520 Z " />
<glyph glyph-name="adieresis" unicode="&#xe4;" horiz-adv-x="388" d="M176 263 C188 299 217 317 244 317 C273 317 300 301 295 269 L289 238 L200 238 C136 238 74 209 58 121 C42 33 108 -5 188 -5 C268 -5 348 40 364 132 L388 269 C404 358 342 411 261 411 C180 411 99 353 83 263 L176 263 Z M150 118 C155 143 172 150 184 150 L274 150 L270 127 C263 95 232 84 203 84 C177 84 145 91 150 118 L150 118 Z M143 532 C136 499 161 470 194 470 C230 470 261 499 268 532 C275 568 252 595 216 595 C183 595 150 568 143 532 L143 532 Z M294 532 C287 499 312 470 345 470 C381 470 412 499 419 532 C426 568 403 595 367 595 C334 595 301 568 294 532 L294 532 Z " />
<glyph glyph-name="aring" unicode="&#xe5;" horiz-adv-x="388" d="M176 263 C188 299 217 317 244 317 C273 317 300 301 295 269 L289 238 L200 238 C136 238 74 209 58 121 C42 33 108 -5 188 -5 C268 -5 348 40 364 132 L388 269 C404 358 342 411 261 411 C180 411 99 353 83 263 L176 263 Z M150 118 C155 143 172 150 184 150 L274 150 L270 127 C263 95 232 84 203 84 C177 84 145 91 150 118 L150 118 Z M313 686 C255 686 197 634 186 577 C175 520 219 470 275 470 C333 470 391 520 402 577 C413 634 369 686 313 686 L313 686 Z M288 544 C275 544 261 554 265 577 C269 601 287 611 300 611 C313 611 327 601 323 577 C319 554 301 544 288 544 L288 544 Z " />
<glyph glyph-name="ae" unicode="&#xe6;" horiz-adv-x="589" d="M543 185 C570 192 588 204 592 231 L599 269 C615 358 553 411 471 411 C431 411 391 398 359 374 C336 398 301 411 261 411 C180 411 99 353 83 263 L176 263 C188 299 217 317 244 317 C273 317 300 301 295 269 L289 238 L200 238 C136 238 74 209 58 121 C42 33 108 -5 188 -5 C229 -5 269 6 301 30 C324 7 359 -5 398 -5 C480 -5 558 42 577 146 L483 146 C475 101 444 84 413 84 C385 84 357 100 364 132 L366 145 L543 185 Z M454 317 C483 317 509 299 505 268 L383 240 L388 269 C395 301 426 317 454 317 L454 317 Z M270 127 C263 95 232 84 203 84 C177 84 145 91 150 118 C155 143 172 150 184 150 L274 150 L270 127 Z " />
<glyph glyph-name="ccedilla" unicode="&#xe7;" horiz-adv-x="386" d="M187 269 C194 301 225 317 253 317 C284 317 309 300 301 255 L395 255 C413 358 353 411 270 411 C187 411 110 358 94 269 L71 137 C55 48 115 -5 197 -5 C208 -5 217 -4 228 -3 C231 -14 233 -26 232 -34 C229 -49 209 -53 193 -53 C168 -53 134 -45 127 -34 L92 -85 C119 -108 140 -113 177 -113 C225 -113 286 -94 294 -43 C297 -24 293 0 285 15 C329 38 365 81 376 146 L282 146 C274 101 243 84 212 84 C184 84 156 100 163 132 L187 269 Z " />
<glyph glyph-name="egrave" unicode="&#xe8;" horiz-adv-x="388" d="M182 240 L187 269 C194 301 225 317 253 317 C282 317 308 299 304 268 L182 240 Z M398 269 C414 358 352 411 270 411 C187 411 110 358 94 269 L71 137 C55 48 115 -5 197 -5 C279 -5 357 42 376 146 L282 146 C274 101 243 84 212 84 C184 84 156 100 163 132 L165 145 L342 185 C369 192 387 204 391 231 L398 269 Z M276 667 L196 589 L334 470 L399 535 L276 667 Z " />
<glyph glyph-name="eacute" unicode="&#xe9;" horiz-adv-x="388" d="M182 240 L187 269 C194 301 225 317 253 317 C282 317 308 299 304 268 L182 240 Z M398 269 C414 358 352 411 270 411 C187 411 110 358 94 269 L71 137 C55 48 115 -5 197 -5 C279 -5 357 42 376 146 L282 146 C274 101 243 84 212 84 C184 84 156 100 163 132 L165 145 L342 185 C369 192 387 204 391 231 L398 269 Z M187 535 L228 470 L408 589 L356 667 L187 535 Z " />
<glyph glyph-name="ecircumflex" unicode="&#xea;" horiz-adv-x="388" d="M182 240 L187 269 C194 301 225 317 253 317 C282 317 308 299 304 268 L182 240 Z M398 269 C414 358 352 411 270 411 C187 411 110 358 94 269 L71 137 C55 48 115 -5 197 -5 C279 -5 357 42 376 146 L282 146 C274 101 243 84 212 84 C184 84 156 100 163 132 L165 145 L342 185 C369 192 387 204 391 231 L398 269 Z M270 655 L135 470 L243 470 L298 562 L317 470 L423 470 L356 655 L270 655 Z " />
<glyph glyph-name="edieresis" unicode="&#xeb;" horiz-adv-x="388" d="M182 240 L187 269 C194 301 225 317 253 317 C282 317 308 299 304 268 L182 240 Z M398 269 C414 358 352 411 270 411 C187 411 110 358 94 269 L71 137 C55 48 115 -5 197 -5 C279 -5 357 42 376 146 L282 146 C274 101 243 84 212 84 C184 84 156 100 163 132 L165 145 L342 185 C369 192 387 204 391 231 L398 269 Z M152 532 C145 499 170 470 203 470 C239 470 270 499 277 532 C284 568 261 595 225 595 C192 595 159 568 152 532 L152 532 Z M303 532 C296 499 321 470 354 470 C390 470 421 499 428 532 C435 568 412 595 376 595 C343 595 310 568 303 532 L303 532 Z " />
<glyph glyph-name="igrave" unicode="&#xec;" horiz-adv-x="207" d="M57 0 L150 0 L221 405 L128 405 L57 0 Z M181 667 L101 589 L239 470 L304 535 L181 667 Z " />
<glyph glyph-name="iacute" unicode="&#xed;" horiz-adv-x="207" d="M221 405 L128 405 L57 0 L150 0 L221 405 Z M91 535 L132 470 L312 589 L260 667 L91 535 Z " />
<glyph glyph-name="icircumflex" unicode="&#xee;" horiz-adv-x="207" d="M221 405 L128 405 L57 0 L150 0 L221 405 Z M260 655 L326 470 L227 470 L202 566 L143 470 L42 470 L174 655 L260 655 Z " />
<glyph glyph-name="idieresis" unicode="&#xef;" horiz-adv-x="207" d="M221 405 L128 405 L57 0 L150 0 L221 405 Z M54 532 C47 499 72 470 105 470 C141 470 172 499 179 532 C186 568 163 595 127 595 C94 595 61 568 54 532 L54 532 Z M214 532 C207 499 232 470 265 470 C301 470 332 499 339 532 C346 568 323 595 287 595 C254 595 221 568 214 532 L214 532 Z " />
<glyph glyph-name="eth" unicode="&#xf0;" horiz-adv-x="404" d="M213 84 C184 84 156 100 163 132 L177 214 C184 246 216 262 245 262 C273 262 301 247 296 216 L281 132 C274 100 242 84 213 84 L213 84 Z M414 361 C424 418 420 465 401 502 L452 542 L402 611 L338 561 C315 570 286 575 251 575 C215 575 191 572 158 561 L168 480 C195 485 214 487 234 487 L242 487 L194 449 L242 380 C267 399 293 419 320 440 C329 420 328 394 321 361 L317 340 C298 352 277 356 256 356 C173 356 100 303 84 214 L71 137 C55 48 115 -5 198 -5 C280 -5 359 48 375 137 L414 361 Z " />
<glyph glyph-name="ntilde" unicode="&#xf1;" horiz-adv-x="406" d="M275 411 C192 411 115 358 99 269 L52 0 L145 0 L191 266 C198 306 230 317 258 317 C286 317 314 306 307 266 L261 0 L354 0 L401 269 C417 358 357 411 275 411 L275 411 Z M429 520 C393 484 366 470 331 470 C305 470 273 495 240 495 C233 495 215 488 191 473 L156 540 C192 576 219 590 254 590 C280 590 312 565 345 565 C352 565 370 572 394 587 L429 520 Z " />
<glyph glyph-name="ograve" unicode="&#xf2;" horiz-adv-x="397" d="M397 269 C413 358 353 411 270 411 C187 411 110 358 94 269 L71 137 C55 48 115 -5 197 -5 C279 -5 358 48 374 137 L397 269 Z M212 84 C184 84 156 100 163 132 L187 269 C194 301 225 317 253 317 C283 317 309 301 304 269 L280 132 C273 100 243 84 212 84 L212 84 Z M275 667 L195 589 L333 470 L398 535 L275 667 Z " />
<glyph glyph-name="oacute" unicode="&#xf3;" horiz-adv-x="397" d="M71 137 C55 48 115 -5 198 -5 C281 -5 358 48 374 137 L397 269 C413 358 353 411 271 411 C189 411 110 358 94 269 L71 137 Z M213 84 C182 84 156 100 163 132 L187 269 C194 301 223 317 254 317 C282 317 309 301 304 269 L280 132 C273 100 241 84 213 84 L213 84 Z M187 535 L228 470 L408 589 L356 667 L187 535 Z " />
<glyph glyph-name="ocircumflex" unicode="&#xf4;" horiz-adv-x="397" d="M397 269 C413 358 353 411 270 411 C187 411 110 358 94 269 L71 137 C55 48 115 -5 197 -5 C279 -5 358 48 374 137 L397 269 Z M212 84 C184 84 156 100 163 132 L187 269 C194 301 225 317 253 317 C283 317 309 301 304 269 L280 132 C273 100 243 84 212 84 L212 84 Z M356 655 L423 470 L317 470 L298 562 L243 470 L135 470 L270 655 L356 655 Z " />
<glyph glyph-name="otilde" unicode="&#xf5;" horiz-adv-x="397" d="M397 269 C413 358 353 411 270 411 C187 411 110 358 94 269 L71 137 C55 48 115 -5 197 -5 C279 -5 358 48 374 137 L397 269 Z M212 84 C184 84 156 100 163 132 L187 269 C194 301 225 317 253 317 C283 317 309 301 304 269 L280 132 C273 100 243 84 212 84 L212 84 Z M426 520 C390 484 363 470 328 470 C302 470 270 495 237 495 C230 495 212 488 188 473 L153 540 C189 576 216 590 251 590 C277 590 309 565 342 565 C349 565 367 572 391 587 L426 520 Z " />
<glyph glyph-name="odieresis" unicode="&#xf6;" horiz-adv-x="397" d="M397 269 C413 358 353 411 270 411 C187 411 110 358 94 269 L71 137 C55 48 115 -5 197 -5 C279 -5 358 48 374 137 L397 269 Z M212 84 C184 84 156 100 163 132 L187 269 C194 301 225 317 253 317 C283 317 309 301 304 269 L280 132 C273 100 243 84 212 84 L212 84 Z M151 532 C144 499 169 470 202 470 C238 470 269 499 276 532 C283 568 260 595 224 595 C191 595 158 568 151 532 L151 532 Z M302 532 C295 499 320 470 353 470 C389 470 420 499 427 532 C434 568 411 595 375 595 C342 595 309 568 302 532 L302 532 Z " />
<glyph glyph-name="divide" unicode="&#xf7;" horiz-adv-x="404" d="M83 153 L373 153 L390 247 L100 247 L83 153 Z M150 57 C143 24 168 -5 201 -5 C237 -5 268 24 275 57 C282 93 259 120 223 120 C190 120 157 93 150 57 L150 57 Z M200 342 C193 309 218 280 251 280 C287 280 318 309 325 342 C332 378 309 405 273 405 C240 405 207 378 200 342 L200 342 Z " />
<glyph glyph-name="oslash" unicode="&#xf8;" horiz-adv-x="397" d="M415 465 L344 465 L311 406 C298 409 284 411 270 411 C187 411 110 358 94 269 L71 137 C62 90 74 53 101 29 L52 -58 L125 -58 L157 -1 C168 -4 182 -5 197 -5 C279 -5 358 48 374 137 L397 269 C405 316 394 352 367 377 L415 465 Z M187 269 C194 301 225 317 253 317 L261 317 L165 143 L187 269 Z M204 84 L303 262 L280 132 C273 100 243 84 212 84 L204 84 Z " />
<glyph glyph-name="ugrave" unicode="&#xf9;" horiz-adv-x="406" d="M202 -5 C285 -5 362 48 378 137 L425 405 L332 405 L284 135 C277 95 245 84 217 84 C189 84 161 95 168 135 L216 405 L123 405 L76 137 C60 48 120 -5 202 -5 L202 -5 Z M279 667 L199 589 L337 470 L402 535 L279 667 Z " />
<glyph glyph-name="uacute" unicode="&#xfa;" horiz-adv-x="406" d="M202 -5 C285 -5 362 48 378 137 L425 405 L332 405 L284 135 C277 95 245 84 217 84 C189 84 161 95 168 135 L216 405 L123 405 L76 137 C60 48 120 -5 202 -5 L202 -5 Z M192 535 L233 470 L413 589 L361 667 L192 535 Z " />
<glyph glyph-name="ucircumflex" unicode="&#xfb;" horiz-adv-x="406" d="M202 -5 C285 -5 362 48 378 137 L425 405 L332 405 L284 135 C277 95 245 84 217 84 C189 84 161 95 168 135 L216 405 L123 405 L76 137 C60 48 120 -5 202 -5 L202 -5 Z M360 655 L427 470 L321 470 L302 562 L247 470 L139 470 L274 655 L360 655 Z " />
<glyph glyph-name="udieresis" unicode="&#xfc;" horiz-adv-x="406" d="M202 -5 C285 -5 362 48 378 137 L425 405 L332 405 L284 135 C277 95 245 84 217 84 C189 84 161 95 168 135 L216 405 L123 405 L76 137 C60 48 120 -5 202 -5 L202 -5 Z M155 532 C148 499 173 470 206 470 C242 470 273 499 280 532 C287 568 264 595 228 595 C195 595 162 568 155 532 L155 532 Z M306 532 C299 499 324 470 357 470 C393 470 424 499 431 532 C438 568 415 595 379 595 C346 595 313 568 306 532 L306 532 Z " />
<glyph glyph-name="yacute" unicode="&#xfd;" horiz-adv-x="413" d="M427 405 L334 405 L285 130 C280 99 246 84 218 84 C189 84 161 100 168 132 L216 405 L123 405 L76 137 C60 48 114 -5 198 -5 C219 -5 240 -1 264 11 L253 -53 C248 -84 224 -101 193 -101 C165 -101 140 -87 148 -40 L56 -40 C38 -143 95 -193 176 -193 C257 -193 330 -141 346 -53 L427 405 Z M193 535 L234 470 L414 589 L362 667 L193 535 Z " />
<glyph glyph-name="thorn" unicode="&#xfe;" horiz-adv-x="408" d="M281 411 C258 411 238 408 220 401 L249 568 L156 568 L22 -193 L115 -193 L151 11 C171 -1 192 -5 213 -5 C296 -5 369 48 385 137 L408 269 C424 358 364 411 281 411 L281 411 Z M291 132 C284 100 252 84 223 84 C195 84 167 99 172 130 L197 270 C204 301 235 317 264 317 C293 317 320 301 315 269 L291 132 Z " />
<glyph glyph-name="ydieresis" unicode="&#xff;" horiz-adv-x="413" d="M427 405 L334 405 L285 130 C280 99 246 84 218 84 C189 84 161 100 168 132 L216 405 L123 405 L76 137 C60 48 114 -5 198 -5 C219 -5 240 -1 264 11 L253 -53 C248 -84 224 -101 193 -101 C165 -101 140 -87 148 -40 L56 -40 C38 -143 95 -193 176 -193 C257 -193 330 -141 346 -53 L427 405 Z M156 532 C149 499 174 470 207 470 C243 470 274 499 281 532 C288 568 265 595 229 595 C196 595 163 568 156 532 L156 532 Z M307 532 C300 499 325 470 358 470 C394 470 425 499 432 532 C439 568 416 595 380 595 C347 595 314 568 307 532 L307 532 Z " />
<glyph glyph-name="Amacron" unicode="&#x100;" horiz-adv-x="492" d="M401 307 L199 307 L212 383 C224 448 278 481 330 481 C383 481 425 450 414 383 L401 307 Z M384 211 L347 0 L440 0 L507 383 C526 494 468 575 347 575 C228 575 138 494 119 383 L52 0 L145 0 L182 211 L384 211 Z M229 727 L519 727 L503 639 L213 639 L229 727 Z " />
<glyph glyph-name="amacron" unicode="&#x101;" horiz-adv-x="391" d="M179 263 C191 299 220 317 247 317 C276 317 303 301 298 269 L292 238 L203 238 C139 238 77 209 61 121 C45 33 111 -5 191 -5 C271 -5 351 40 367 132 L391 269 C407 358 345 411 264 411 C183 411 102 353 86 263 L179 263 Z M153 118 C158 143 175 150 187 150 L277 150 L273 127 C266 95 235 84 206 84 C180 84 148 91 153 118 L153 118 Z M156 558 L426 558 L410 470 L140 470 L156 558 Z " />
<glyph glyph-name="Abreve" unicode="&#x102;" horiz-adv-x="492" d="M401 307 L199 307 L212 383 C224 448 278 481 330 481 C383 481 425 450 414 383 L401 307 Z M384 211 L347 0 L440 0 L507 383 C526 494 468 575 347 575 C228 575 138 494 119 383 L52 0 L145 0 L182 211 L384 211 Z M359 639 C440 639 511 675 532 781 L439 781 C431 729 393 721 374 721 C358 721 321 729 329 781 L236 781 C223 675 276 639 359 639 L359 639 Z " />
<glyph glyph-name="abreve" unicode="&#x103;" horiz-adv-x="388" d="M176 263 C188 299 217 317 244 317 C273 317 300 301 295 269 L289 238 L200 238 C136 238 74 209 58 121 C42 33 108 -5 188 -5 C268 -5 348 40 364 132 L388 269 C404 358 342 411 261 411 C180 411 99 353 83 263 L176 263 Z M150 118 C155 143 172 150 184 150 L274 150 L270 127 C263 95 232 84 203 84 C177 84 145 91 150 118 L150 118 Z M271 470 C352 470 413 506 434 612 L341 612 C333 560 305 552 286 552 C269 552 243 560 251 612 L158 612 C145 506 188 470 271 470 L271 470 Z " />
<glyph glyph-name="Aogonek" unicode="&#x104;" horiz-adv-x="492" d="M401 307 L199 307 L212 383 C224 448 278 481 330 481 C383 481 425 450 414 383 L401 307 Z M357 59 C271 54 256 -13 256 -18 C245 -85 290 -110 335 -110 C368 -110 392 -105 423 -80 L403 -32 C382 -44 357 -50 344 -50 C323 -50 321 -37 324 -25 C327 -10 339 0 355 0 L440 0 L507 383 C526 494 468 575 347 575 C228 575 138 494 119 383 L52 0 L145 0 L182 211 L384 211 L357 59 Z " />
<glyph glyph-name="aogonek" unicode="&#x105;" horiz-adv-x="388" d="M176 263 C188 299 217 317 244 317 C273 317 300 301 295 269 L289 238 L200 238 C136 238 74 209 58 121 C44 45 90 9 151 -2 L148 -21 C137 -80 180 -103 233 -103 C272 -103 295 -96 323 -73 L303 -26 C285 -37 264 -43 241 -43 C213 -43 211 -26 215 -3 C287 5 348 50 364 132 L388 269 C404 358 342 411 261 411 C180 411 99 353 83 263 L176 263 Z M150 118 C155 143 172 150 184 150 L274 150 L270 127 C263 95 232 84 203 84 C177 84 145 91 150 118 L150 118 Z " />
<glyph glyph-name="Cacute" unicode="&#x106;" horiz-adv-x="461" d="M498 378 C514 494 459 575 341 575 C222 575 133 494 114 383 L79 187 C60 74 118 -5 239 -5 C356 -5 441 76 465 192 L371 192 C354 123 305 84 254 84 C202 84 161 121 172 186 L207 383 C219 450 272 480 324 480 C375 480 412 447 404 378 L498 378 Z M266 704 L307 639 L487 758 L435 836 L266 704 Z " />
<glyph glyph-name="cacute" unicode="&#x107;" horiz-adv-x="386" d="M187 269 C194 301 225 317 253 317 C284 317 309 300 301 255 L395 255 C413 358 353 411 270 411 C187 411 110 358 94 269 L71 137 C55 48 115 -5 197 -5 C279 -5 357 42 376 146 L282 146 C274 101 243 84 212 84 C184 84 156 100 163 132 L187 269 Z M182 535 L223 470 L403 589 L351 667 L182 535 Z " />
<glyph glyph-name="Ccircumflex" unicode="&#x108;" horiz-adv-x="461" d="M498 378 C514 494 459 575 341 575 C222 575 133 494 114 383 L79 187 C60 74 118 -5 239 -5 C356 -5 441 76 465 192 L371 192 C354 123 305 84 254 84 C202 84 161 121 172 186 L207 383 C219 450 272 480 324 480 C375 480 412 447 404 378 L498 378 Z M425 824 L511 639 L405 639 L366 731 L296 639 L188 639 L339 824 L425 824 Z " />
<glyph glyph-name="ccircumflex" unicode="&#x109;" horiz-adv-x="386" d="M187 269 C194 301 225 317 253 317 C284 317 309 300 301 255 L395 255 C413 358 353 411 270 411 C187 411 110 358 94 269 L71 137 C55 48 115 -5 197 -5 C279 -5 357 42 376 146 L282 146 C274 101 243 84 212 84 C184 84 156 100 163 132 L187 269 Z M271 655 L136 470 L244 470 L299 562 L318 470 L424 470 L357 655 L271 655 Z " />
<glyph glyph-name="Cdotaccent" unicode="&#x10a;" horiz-adv-x="461" d="M498 378 C514 494 459 575 341 575 C222 575 133 494 114 383 L79 187 C60 74 118 -5 239 -5 C356 -5 441 76 465 192 L371 192 C354 123 305 84 254 84 C202 84 161 121 172 186 L207 383 C219 450 272 480 324 480 C375 480 412 447 404 378 L498 378 Z M303 701 C296 668 321 639 354 639 C390 639 421 668 428 701 C435 737 412 764 376 764 C343 764 310 737 303 701 L303 701 Z " />
<glyph glyph-name="cdotaccent" unicode="&#x10b;" horiz-adv-x="386" d="M187 269 C194 301 225 317 253 317 C284 317 309 300 301 255 L395 255 C413 358 353 411 270 411 C187 411 110 358 94 269 L71 137 C55 48 115 -5 197 -5 C279 -5 357 42 376 146 L282 146 C274 101 243 84 212 84 C184 84 156 100 163 132 L187 269 Z M229 532 C222 499 247 470 280 470 C316 470 347 499 354 532 C361 568 338 595 302 595 C269 595 236 568 229 532 L229 532 Z " />
<glyph glyph-name="Ccaron" unicode="&#x10c;" horiz-adv-x="461" d="M498 378 C514 494 459 575 341 575 C222 575 133 494 114 383 L79 187 C60 74 118 -5 239 -5 C356 -5 441 76 465 192 L371 192 C354 123 305 84 254 84 C202 84 161 121 172 186 L207 383 C219 450 272 480 324 480 C375 480 412 447 404 378 L498 378 Z M309 639 L240 824 L348 824 L370 732 L422 824 L528 824 L395 639 L309 639 Z " />
<glyph glyph-name="ccaron" unicode="&#x10d;" horiz-adv-x="386" d="M319 470 L452 655 L346 655 L294 563 L272 655 L164 655 L233 470 L319 470 Z M187 269 C194 301 225 317 253 317 C284 317 309 300 301 255 L395 255 C413 358 353 411 270 411 C187 411 110 358 94 269 L71 137 C55 48 115 -5 197 -5 C279 -5 357 42 376 146 L282 146 C274 101 243 84 212 84 C184 84 156 100 163 132 L187 269 Z " />
<glyph glyph-name="Dcaron" unicode="&#x10e;" horiz-adv-x="481" d="M327 474 C379 474 419 443 407 379 L374 190 C363 126 312 94 260 94 L166 94 L233 474 L327 474 Z M241 0 C361 0 448 79 467 191 L500 377 C519 489 462 568 341 568 L206 568 C181 568 153 547 148 520 L65 48 C60 21 81 0 106 0 L241 0 Z M396 639 L529 824 L423 824 L371 732 L349 824 L241 824 L310 639 L396 639 Z " />
<glyph glyph-name="dcaron" unicode="&#x10f;" horiz-adv-x="552" d="M71 137 C55 48 115 -5 198 -5 C280 -5 359 48 375 137 L451 568 L358 568 L327 395 C307 407 287 411 266 411 C183 411 110 358 94 269 L71 137 Z M213 84 C184 84 156 100 163 132 L187 269 C194 301 225 317 254 317 C282 317 310 302 305 271 L281 132 C274 100 242 84 213 84 L213 84 Z M660 568 L563 568 L457 401 L542 401 L660 568 Z " />
<glyph glyph-name="Dcroat" unicode="&#x110;" horiz-adv-x="486" d="M102 231 L70 48 C65 21 86 0 111 0 L246 0 C366 0 453 79 472 191 L505 377 C524 489 467 568 346 568 L211 568 C186 568 158 547 153 520 L119 327 L59 327 L42 231 L102 231 Z M332 474 C384 474 424 443 412 379 L379 190 C368 126 317 94 265 94 L171 94 L195 231 L306 231 L323 327 L212 327 L238 474 L332 474 Z " />
<glyph glyph-name="dcroat" unicode="&#x111;" horiz-adv-x="400" d="M213 84 C184 84 156 100 163 132 L187 269 C194 301 225 317 254 317 C282 317 310 302 305 271 L281 132 C274 100 242 84 213 84 L213 84 Z M428 440 L485 440 L500 525 L443 525 L451 568 L358 568 L350 525 L286 525 L271 440 L335 440 L327 395 C307 407 287 411 266 411 C183 411 110 358 94 269 L71 137 C55 48 115 -5 198 -5 C280 -5 359 48 375 137 L428 440 Z " />
<glyph glyph-name="Emacron" unicode="&#x112;" horiz-adv-x="420" d="M390 0 L406 94 L166 94 L187 212 L355 212 L371 306 L203 306 L233 474 L473 474 L490 568 L205 568 C178 568 153 547 148 520 L65 48 C60 21 78 0 105 0 L390 0 Z M205 727 L495 727 L479 639 L189 639 L205 727 Z " />
<glyph glyph-name="emacron" unicode="&#x113;" horiz-adv-x="388" d="M182 240 L187 269 C194 301 225 317 253 317 C282 317 308 299 304 268 L182 240 Z M398 269 C414 358 352 411 270 411 C187 411 110 358 94 269 L71 137 C55 48 115 -5 197 -5 C279 -5 357 42 376 146 L282 146 C274 101 243 84 212 84 C184 84 156 100 163 132 L165 145 L342 185 C369 192 387 204 391 231 L398 269 Z M146 470 L416 470 L432 558 L162 558 L146 470 Z " />
<glyph glyph-name="Edotaccent" unicode="&#x116;" horiz-adv-x="420" d="M390 0 L406 94 L166 94 L187 212 L355 212 L371 306 L203 306 L233 474 L473 474 L490 568 L205 568 C178 568 153 547 148 520 L65 48 C60 21 78 0 105 0 L390 0 Z M280 701 C273 668 298 639 331 639 C367 639 398 668 405 701 C412 737 389 764 353 764 C320 764 287 737 280 701 L280 701 Z " />
<glyph glyph-name="edotaccent" unicode="&#x117;" horiz-adv-x="388" d="M182 240 L187 269 C194 301 225 317 253 317 C282 317 308 299 304 268 L182 240 Z M398 269 C414 358 352 411 270 411 C187 411 110 358 94 269 L71 137 C55 48 115 -5 197 -5 C279 -5 357 42 376 146 L282 146 C274 101 243 84 212 84 C184 84 156 100 163 132 L165 145 L342 185 C369 192 387 204 391 231 L398 269 Z M227 532 C220 499 245 470 278 470 C314 470 345 499 352 532 C359 568 336 595 300 595 C267 595 234 568 227 532 L227 532 Z " />
<glyph glyph-name="Eogonek" unicode="&#x118;" horiz-adv-x="420" d="M197 0 C193 -9 190 -24 190 -27 C179 -86 232 -118 285 -118 C324 -118 346 -111 374 -88 L354 -41 C336 -52 315 -58 292 -58 C261 -58 252 -39 259 0 L390 0 L406 94 L166 94 L187 212 L355 212 L371 306 L203 306 L233 474 L473 474 L490 568 L205 568 C178 568 153 547 148 520 L65 48 C60 21 78 0 105 0 L197 0 Z " />
<glyph glyph-name="eogonek" unicode="&#x119;" horiz-adv-x="388" d="M342 185 C369 192 387 204 391 231 L398 269 C414 358 352 411 270 411 C187 411 110 358 94 269 L71 137 C58 64 96 15 156 0 L154 -10 C143 -69 196 -101 249 -101 C288 -101 311 -89 339 -66 L319 -19 C300 -31 281 -41 256 -41 C231 -41 222 -28 221 -4 C293 4 360 54 376 146 L282 146 C274 101 243 84 212 84 C184 84 156 100 163 132 L165 145 L342 185 Z M187 269 C194 301 225 317 253 317 C282 317 308 299 304 268 L182 240 L187 269 Z " />
<glyph glyph-name="Ecaron" unicode="&#x11a;" horiz-adv-x="420" d="M390 0 L406 94 L166 94 L187 212 L355 212 L371 306 L203 306 L233 474 L473 474 L490 568 L205 568 C178 568 153 547 148 520 L65 48 C60 21 78 0 105 0 L390 0 Z M310 639 L241 824 L349 824 L371 732 L423 824 L529 824 L396 639 L310 639 Z " />
<glyph glyph-name="ecaron" unicode="&#x11b;" horiz-adv-x="388" d="M182 240 L187 269 C194 301 225 317 253 317 C282 317 308 299 304 268 L182 240 Z M398 269 C414 358 352 411 270 411 C187 411 110 358 94 269 L71 137 C55 48 115 -5 197 -5 C279 -5 357 42 376 146 L282 146 C274 101 243 84 212 84 C184 84 156 100 163 132 L165 145 L342 185 C369 192 387 204 391 231 L398 269 Z M327 470 L460 655 L354 655 L302 563 L280 655 L172 655 L241 470 L327 470 Z " />
<glyph glyph-name="Gcircumflex" unicode="&#x11c;" horiz-adv-x="479" d="M207 383 C219 450 272 480 324 480 C375 480 412 447 404 378 L498 378 C514 494 459 575 341 575 C222 575 133 494 114 383 L79 187 C60 74 118 -5 239 -5 C361 -5 445 74 464 187 L477 257 C481 282 463 306 438 306 L298 306 L282 211 L376 211 L371 185 C360 120 306 84 254 84 C202 84 161 121 172 186 L207 383 Z M428 824 L514 639 L408 639 L369 731 L299 639 L191 639 L342 824 L428 824 Z " />
<glyph glyph-name="gcircumflex" unicode="&#x11d;" horiz-adv-x="398" d="M254 317 C283 317 310 301 305 269 L280 130 C275 99 241 84 213 84 C184 84 156 100 163 132 L187 269 C194 301 225 317 254 317 L254 317 Z M248 -53 C243 -84 219 -101 188 -101 C160 -101 135 -87 143 -40 L51 -40 C33 -143 90 -193 171 -193 C252 -193 325 -141 341 -53 L398 269 C414 358 354 411 271 411 C189 411 110 358 94 269 L71 137 C55 48 109 -5 193 -5 C214 -5 235 -1 259 11 L248 -53 Z M357 655 L423 470 L324 470 L299 566 L240 470 L139 470 L271 655 L357 655 Z " />
<glyph glyph-name="Gbreve" unicode="&#x11e;" horiz-adv-x="479" d="M207 383 C219 450 272 480 324 480 C375 480 412 447 404 378 L498 378 C514 494 459 575 341 575 C222 575 133 494 114 383 L79 187 C60 74 118 -5 239 -5 C361 -5 445 74 464 187 L477 257 C481 282 463 306 438 306 L298 306 L282 211 L376 211 L371 185 C360 120 306 84 254 84 C202 84 161 121 172 186 L207 383 Z M354 639 C435 639 506 675 527 781 L434 781 C426 729 388 721 369 721 C353 721 316 729 324 781 L231 781 C218 675 271 639 354 639 L354 639 Z " />
<glyph glyph-name="gbreve" unicode="&#x11f;" horiz-adv-x="398" d="M254 317 C283 317 310 301 305 269 L280 130 C275 99 241 84 213 84 C184 84 156 100 163 132 L187 269 C194 301 225 317 254 317 L254 317 Z M248 -53 C243 -84 219 -101 188 -101 C160 -101 135 -87 143 -40 L51 -40 C33 -143 90 -193 171 -193 C252 -193 325 -141 341 -53 L398 269 C414 358 354 411 271 411 C189 411 110 358 94 269 L71 137 C55 48 109 -5 193 -5 C214 -5 235 -1 259 11 L248 -53 Z M280 470 C361 470 422 506 443 612 L350 612 C342 560 314 552 295 552 C278 552 252 560 260 612 L167 612 C154 506 197 470 280 470 L280 470 Z " />
<glyph glyph-name="Gdotaccent" unicode="&#x120;" horiz-adv-x="479" d="M207 383 C219 450 272 480 324 480 C375 480 412 447 404 378 L498 378 C514 494 459 575 341 575 C222 575 133 494 114 383 L79 187 C60 74 118 -5 239 -5 C361 -5 445 74 464 187 L477 257 C481 282 463 306 438 306 L298 306 L282 211 L376 211 L371 185 C360 120 306 84 254 84 C202 84 161 121 172 186 L207 383 Z M301 701 C294 668 319 639 352 639 C388 639 419 668 426 701 C433 737 410 764 374 764 C341 764 308 737 301 701 L301 701 Z " />
<glyph glyph-name="gdotaccent" unicode="&#x121;" horiz-adv-x="398" d="M254 317 C283 317 310 301 305 269 L280 130 C275 99 241 84 213 84 C184 84 156 100 163 132 L187 269 C194 301 225 317 254 317 L254 317 Z M248 -53 C243 -84 219 -101 188 -101 C160 -101 135 -87 143 -40 L51 -40 C33 -143 90 -193 171 -193 C252 -193 325 -141 341 -53 L398 269 C414 358 354 411 271 411 C189 411 110 358 94 269 L71 137 C55 48 109 -5 193 -5 C214 -5 235 -1 259 11 L248 -53 Z M231 532 C224 499 249 470 282 470 C318 470 349 499 356 532 C363 568 340 595 304 595 C271 595 238 568 231 532 L231 532 Z " />
<glyph glyph-name="uni0122" unicode="&#x122;" horiz-adv-x="479" d="M207 383 C219 450 272 480 324 480 C375 480 412 447 404 378 L498 378 C514 494 459 575 341 575 C222 575 133 494 114 383 L79 187 C60 74 118 -5 239 -5 C361 -5 445 74 464 187 L477 257 C481 282 463 306 438 306 L298 306 L282 211 L376 211 L371 185 C360 120 306 84 254 84 C202 84 161 121 172 186 L207 383 Z M290 -71 L198 -71 L129 -215 L207 -215 L290 -71 Z " />
<glyph glyph-name="uni0123" unicode="&#x123;" horiz-adv-x="398" d="M254 317 C283 317 310 301 305 269 L280 130 C275 99 241 84 213 84 C184 84 156 100 163 132 L187 269 C194 301 225 317 254 317 L254 317 Z M248 -53 C243 -84 219 -101 188 -101 C160 -101 135 -87 143 -40 L51 -40 C33 -143 90 -193 171 -193 C252 -193 325 -141 341 -53 L398 269 C414 358 354 411 271 411 C189 411 110 358 94 269 L71 137 C55 48 109 -5 193 -5 C214 -5 235 -1 259 11 L248 -53 Z M418 611 L318 611 L231 470 L317 470 L418 611 Z " />
<glyph glyph-name="Hcircumflex" unicode="&#x124;" horiz-adv-x="497" d="M401 307 L204 307 L250 568 L157 568 L57 0 L150 0 L187 211 L384 211 L347 0 L440 0 L540 568 L447 568 L401 307 Z M350 824 L199 639 L307 639 L377 731 L416 639 L522 639 L436 824 L350 824 Z " />
<glyph glyph-name="hcircumflex" unicode="&#x125;" horiz-adv-x="413" d="M268 0 L361 0 L408 269 C424 358 370 411 286 411 C265 411 243 407 219 395 L250 568 L157 568 L57 0 L150 0 L197 271 C204 302 236 317 264 317 C293 317 320 301 315 269 L268 0 Z M388 824 L454 639 L355 639 L330 735 L271 639 L170 639 L302 824 L388 824 Z " />
<glyph glyph-name="Hbar" unicode="&#x126;" horiz-adv-x="513" d="M597 492 L534 492 L548 568 L455 568 L441 492 L244 492 L258 568 L165 568 L151 492 L88 492 L71 396 L134 396 L65 0 L158 0 L195 211 L392 211 L355 0 L448 0 L517 396 L580 396 L597 492 Z M409 307 L212 307 L227 396 L424 396 L409 307 Z " />
<glyph glyph-name="hbar" unicode="&#x127;" horiz-adv-x="405" d="M126 440 L49 0 L142 0 L189 271 C196 302 228 317 256 317 C285 317 312 301 307 269 L260 0 L353 0 L400 269 C416 358 362 411 278 411 C257 411 235 407 211 395 L219 440 L283 440 L298 525 L234 525 L242 568 L149 568 L141 525 L84 525 L69 440 L126 440 Z " />
<glyph glyph-name="Itilde" unicode="&#x128;" horiz-adv-x="207" d="M57 0 L150 0 L250 568 L157 568 L57 0 Z M363 689 C327 653 300 639 265 639 C239 639 207 664 174 664 C167 664 148 657 125 642 L90 709 C126 745 152 759 187 759 C214 759 246 734 279 734 C286 734 304 741 328 756 L363 689 Z " />
<glyph glyph-name="itilde" unicode="&#x129;" horiz-adv-x="207" d="M57 0 L150 0 L221 405 L128 405 L57 0 Z M333 520 C297 484 270 470 235 470 C209 470 177 495 144 495 C137 495 119 488 95 473 L60 540 C96 576 123 590 158 590 C184 590 216 565 249 565 C256 565 274 572 298 587 L333 520 Z " />
<glyph glyph-name="Imacron" unicode="&#x12a;" horiz-adv-x="207" d="M57 0 L150 0 L250 568 L157 568 L57 0 Z M125 727 L339 727 L323 639 L109 639 L125 727 Z " />
<glyph glyph-name="imacron" unicode="&#x12b;" horiz-adv-x="207" d="M57 0 L150 0 L221 405 L128 405 L57 0 Z M95 558 L309 558 L293 470 L79 470 L95 558 Z " />
<glyph glyph-name="Iogonek" unicode="&#x12e;" horiz-adv-x="207" d="M67 59 C-17 54 -33 -13 -33 -18 C-44 -85 0 -110 45 -110 C78 -110 102 -105 133 -80 L113 -32 C92 -44 67 -50 54 -50 C33 -50 31 -37 34 -25 C37 -10 49 0 65 0 L150 0 L250 568 L157 568 L67 59 Z " />
<glyph glyph-name="iogonek" unicode="&#x12f;" horiz-adv-x="207" d="M150 0 L221 405 L128 405 L67 59 C-17 54 -33 -13 -33 -18 C-44 -85 0 -110 45 -110 C78 -110 102 -105 133 -80 L113 -32 C92 -44 67 -50 54 -50 C33 -50 31 -37 34 -25 C37 -10 49 0 65 0 L150 0 Z M134 488 C127 457 148 434 180 434 C211 434 238 457 245 488 C250 520 230 544 199 544 C167 544 139 520 134 488 L134 488 Z " />
<glyph glyph-name="Idotaccent" unicode="&#x130;" horiz-adv-x="207" d="M57 0 L150 0 L250 568 L157 568 L57 0 Z M170 693 C163 662 184 639 216 639 C247 639 274 662 281 693 C286 725 267 749 236 749 C204 749 175 725 170 693 L170 693 Z " />
<glyph glyph-name="dotlessi" unicode="&#x131;" horiz-adv-x="217" d="M62 0 L155 0 L226 405 L133 405 L62 0 Z " />
<glyph glyph-name="Jcircumflex" unicode="&#x134;" horiz-adv-x="411" d="M450 520 C455 547 435 568 410 568 L222 568 L205 476 L349 476 L297 180 C286 115 250 84 199 84 C146 84 117 117 128 181 L33 181 C14 73 59 -5 184 -5 C304 -5 372 74 391 186 L450 520 Z M384 824 L470 639 L364 639 L325 731 L255 639 L147 639 L298 824 L384 824 Z " />
<glyph glyph-name="jcircumflex" unicode="&#x135;" horiz-adv-x="207" d="M-71 -178 C-50 -186 -18 -193 1 -193 C73 -193 121 -159 136 -79 L221 405 L128 405 L45 -65 C40 -92 34 -102 15 -102 C4 -102 -13 -100 -36 -95 L-71 -178 Z M175 655 L43 470 L144 470 L203 566 L228 470 L327 470 L261 655 L175 655 Z " />
<glyph glyph-name="uni0136" unicode="&#x136;" horiz-adv-x="494" d="M482 0 L375 338 C442 397 531 496 579 568 L477 568 C385 451 286 371 206 320 L250 568 L157 568 L57 0 L150 0 L187 210 C214 225 261 254 293 275 L378 0 L482 0 Z M303 -71 L211 -71 L142 -215 L220 -215 L303 -71 Z " />
<glyph glyph-name="uni0137" unicode="&#x137;" horiz-adv-x="413" d="M177 157 L181 157 C204 157 233 166 254 174 L291 0 L391 0 L342 231 C391 274 436 340 447 405 L354 405 C341 334 254 251 198 251 L194 251 L250 568 L157 568 L57 0 L150 0 L177 157 Z M167 -215 L89 -215 L158 -71 L250 -71 L167 -215 Z " />
<glyph glyph-name="kgreenlandic" unicode="&#x138;" horiz-adv-x="413" d="M177 157 L181 157 C204 157 233 166 254 174 L291 0 L391 0 L342 231 C391 274 436 340 447 405 L354 405 C341 334 254 251 198 251 L194 251 L221 405 L128 405 L57 0 L150 0 L177 157 Z " />
<glyph glyph-name="Lacute" unicode="&#x139;" horiz-adv-x="424" d="M407 0 L423 94 L166 94 L250 568 L157 568 L65 48 C60 21 78 0 105 0 L407 0 Z M182 704 L223 639 L403 758 L351 836 L182 704 Z " />
<glyph glyph-name="lacute" unicode="&#x13a;" horiz-adv-x="207" d="M250 568 L157 568 L57 0 L150 0 L250 568 Z M121 704 L162 639 L342 758 L290 836 L121 704 Z " />
<glyph glyph-name="uni013B" unicode="&#x13b;" horiz-adv-x="424" d="M407 0 L423 94 L166 94 L250 568 L157 568 L65 48 C60 21 78 0 105 0 L407 0 Z M272 -71 L180 -71 L111 -215 L189 -215 L272 -71 Z " />
<glyph glyph-name="uni013C" unicode="&#x13c;" horiz-adv-x="207" d="M57 0 L150 0 L250 568 L157 568 L57 0 Z M137 -71 L45 -71 L-23 -215 L54 -215 L137 -71 Z " />
<glyph glyph-name="Lcaron" unicode="&#x13d;" horiz-adv-x="424" d="M407 0 L423 94 L166 94 L250 568 L157 568 L65 48 C60 21 78 0 105 0 L407 0 Z M486 568 L389 568 L278 390 L361 390 L486 568 Z " />
<glyph glyph-name="lcaron" unicode="&#x13e;" horiz-adv-x="351" d="M57 0 L150 0 L250 568 L157 568 L57 0 Z M459 568 L362 568 L256 401 L341 401 L459 568 Z " />
<glyph glyph-name="Lslash" unicode="&#x141;" horiz-adv-x="451" d="M56 311 L39 215 L126 243 L92 48 C87 21 105 0 132 0 L434 0 L450 94 L193 94 L225 274 L315 303 L332 398 L242 369 L277 568 L184 568 L143 338 L56 311 Z " />
<glyph glyph-name="lslash" unicode="&#x142;" horiz-adv-x="264" d="M315 303 L332 398 L242 369 L277 568 L184 568 L143 338 L56 311 L39 215 L126 243 L84 0 L177 0 L225 274 L315 303 Z " />
<glyph glyph-name="Nacute" unicode="&#x143;" horiz-adv-x="492" d="M347 0 L440 0 L507 383 C526 494 468 575 347 575 C228 575 138 494 119 383 L52 0 L145 0 L212 383 C224 448 278 481 330 481 C383 481 425 450 414 383 L347 0 Z M264 704 L305 639 L485 758 L433 836 L264 704 Z " />
<glyph glyph-name="nacute" unicode="&#x144;" horiz-adv-x="406" d="M275 411 C192 411 115 358 99 269 L52 0 L145 0 L191 266 C198 306 230 317 258 317 C286 317 314 306 307 266 L261 0 L354 0 L401 269 C417 358 357 411 275 411 L275 411 Z M186 535 L227 470 L407 589 L355 667 L186 535 Z " />
<glyph glyph-name="uni0145" unicode="&#x145;" horiz-adv-x="492" d="M347 0 L440 0 L507 383 C526 494 468 575 347 575 C228 575 138 494 119 383 L52 0 L145 0 L212 383 C224 448 278 481 330 481 C383 481 425 450 414 383 L347 0 Z M284 -71 L192 -71 L123 -215 L201 -215 L284 -71 Z " />
<glyph glyph-name="uni0146" unicode="&#x146;" horiz-adv-x="406" d="M275 411 C192 411 115 358 99 269 L52 0 L145 0 L191 266 C198 306 230 317 258 317 C286 317 314 306 307 266 L261 0 L354 0 L401 269 C417 358 357 411 275 411 L275 411 Z M239 -71 L147 -71 L78 -215 L156 -215 L239 -71 Z " />
<glyph glyph-name="Ncaron" unicode="&#x147;" horiz-adv-x="492" d="M347 0 L440 0 L507 383 C526 494 468 575 347 575 C228 575 138 494 119 383 L52 0 L145 0 L212 383 C224 448 278 481 330 481 C383 481 425 450 414 383 L347 0 Z M314 639 L245 824 L353 824 L375 732 L427 824 L533 824 L400 639 L314 639 Z " />
<glyph glyph-name="ncaron" unicode="&#x148;" horiz-adv-x="406" d="M275 411 C192 411 115 358 99 269 L52 0 L145 0 L191 266 C198 306 230 317 258 317 C286 317 314 306 307 266 L261 0 L354 0 L401 269 C417 358 357 411 275 411 L275 411 Z M241 470 L172 655 L280 655 L302 563 L354 655 L460 655 L327 470 L241 470 Z " />
<glyph glyph-name="Eng" unicode="&#x14a;" horiz-adv-x="492" d="M507 383 C526 494 468 575 347 575 C228 575 138 494 119 383 L52 0 L145 0 L212 383 C224 448 278 481 330 481 C383 481 425 450 414 383 L335 -65 C330 -92 324 -102 305 -102 C293 -102 276 -100 253 -95 L218 -178 C239 -186 271 -193 291 -193 C363 -193 411 -159 426 -79 L507 383 Z " />
<glyph glyph-name="eng" unicode="&#x14b;" horiz-adv-x="406" d="M401 269 C417 358 357 411 275 411 C192 411 115 358 99 269 L52 0 L145 0 L191 266 C198 306 230 317 258 317 C286 317 314 306 307 266 L249 -65 C244 -92 238 -102 219 -102 C207 -102 190 -100 167 -95 L132 -178 C153 -186 185 -193 205 -193 C277 -193 325 -159 340 -79 L401 269 Z " />
<glyph glyph-name="Omacron" unicode="&#x14c;" horiz-adv-x="482" d="M502 383 C521 494 463 575 342 575 C223 575 133 494 114 383 L79 187 C60 74 120 -5 240 -5 C360 -5 448 74 467 187 L502 383 Z M374 182 C361 115 308 84 255 84 C203 84 159 115 172 182 L207 383 C219 448 273 481 325 481 C378 481 420 450 409 383 L374 182 Z M224 727 L514 727 L498 639 L208 639 L224 727 Z " />
<glyph glyph-name="omacron" unicode="&#x14d;" horiz-adv-x="397" d="M397 269 C413 358 353 411 270 411 C187 411 110 358 94 269 L71 137 C55 48 115 -5 197 -5 C279 -5 358 48 374 137 L397 269 Z M212 84 C184 84 156 100 163 132 L187 269 C194 301 225 317 253 317 C283 317 309 301 304 269 L280 132 C273 100 243 84 212 84 L212 84 Z M161 558 L431 558 L415 470 L145 470 L161 558 Z " />
<glyph glyph-name="Ohungarumlaut" unicode="&#x150;" horiz-adv-x="482" d="M502 383 C521 494 463 575 342 575 C223 575 133 494 114 383 L79 187 C60 74 120 -5 240 -5 C360 -5 448 74 467 187 L502 383 Z M374 182 C361 115 308 84 255 84 C203 84 159 115 172 182 L207 383 C219 448 273 481 325 481 C378 481 420 450 409 383 L374 182 Z M407 795 L315 795 L250 639 L321 639 L407 795 Z M538 795 L446 795 L381 639 L452 639 L538 795 Z " />
<glyph glyph-name="ohungarumlaut" unicode="&#x151;" horiz-adv-x="397" d="M397 269 C413 358 353 411 270 411 C187 411 110 358 94 269 L71 137 C55 48 115 -5 197 -5 C279 -5 358 48 374 137 L397 269 Z M212 84 C184 84 156 100 163 132 L187 269 C194 301 225 317 253 317 C283 317 309 301 304 269 L280 132 C273 100 243 84 212 84 L212 84 Z M325 626 L233 626 L168 470 L239 470 L325 626 Z M456 626 L364 626 L299 470 L370 470 L456 626 Z " />
<glyph glyph-name="OE" unicode="&#x152;" horiz-adv-x="699" d="M670 0 L686 94 L446 94 L467 212 L635 212 L651 306 L483 306 L513 472 L753 472 L770 568 L340 568 C221 568 132 489 113 377 L80 191 C61 79 119 0 240 0 L670 0 Z M254 94 C202 94 162 125 173 189 L206 377 C217 441 269 472 321 472 L420 472 L353 94 L254 94 Z " />
<glyph glyph-name="oe" unicode="&#x153;" horiz-adv-x="598" d="M375 145 L552 185 C579 192 597 204 601 231 L608 269 C624 358 562 411 480 411 C439 411 402 399 369 375 C346 398 310 411 270 411 C187 411 110 358 94 269 L71 137 C55 48 115 -5 197 -5 C237 -5 277 8 308 31 C333 7 366 -5 407 -5 C489 -5 567 42 586 146 L492 146 C484 101 453 84 422 84 C394 84 366 100 373 132 L375 145 Z M463 317 C492 317 518 299 514 268 L392 240 L397 269 C404 301 435 317 463 317 L463 317 Z M280 132 C273 100 243 84 212 84 C184 84 156 100 163 132 L187 269 C194 301 225 317 253 317 C283 317 309 301 304 269 L280 132 Z " />
<glyph glyph-name="Racute" unicode="&#x154;" horiz-adv-x="480" d="M206 320 L233 474 L338 474 C392 474 431 462 420 399 C409 335 364 320 311 320 L206 320 Z M205 568 C180 568 153 547 148 520 L57 0 L150 0 L189 224 L314 224 C345 224 372 210 365 174 L335 0 L428 0 L458 174 C466 218 457 248 437 271 C478 298 504 348 513 399 C533 512 472 568 351 568 L205 568 Z M261 704 L302 639 L482 758 L430 836 L261 704 Z " />
<glyph glyph-name="racute" unicode="&#x155;" horiz-adv-x="324" d="M363 261 C379 356 331 411 258 411 C185 411 115 361 102 284 L52 0 L145 0 L192 271 C199 310 218 317 241 317 C262 317 277 300 270 261 L363 261 Z M170 535 L211 470 L391 589 L339 667 L170 535 Z " />
<glyph glyph-name="uni0156" unicode="&#x156;" horiz-adv-x="480" d="M206 320 L233 474 L338 474 C392 474 431 462 420 399 C409 335 364 320 311 320 L206 320 Z M205 568 C180 568 153 547 148 520 L57 0 L150 0 L189 224 L314 224 C345 224 372 210 365 174 L335 0 L428 0 L458 174 C466 218 457 248 437 271 C478 298 504 348 513 399 C533 512 472 568 351 568 L205 568 Z M278 -71 L186 -71 L117 -215 L195 -215 L278 -71 Z " />
<glyph glyph-name="uni0157" unicode="&#x157;" horiz-adv-x="324" d="M363 261 C379 356 331 411 258 411 C185 411 115 361 102 284 L52 0 L145 0 L192 271 C199 310 218 317 241 317 C262 317 277 300 270 261 L363 261 Z M92 -215 L14 -215 L83 -71 L175 -71 L92 -215 Z " />
<glyph glyph-name="Rcaron" unicode="&#x158;" horiz-adv-x="480" d="M311 320 L206 320 L233 474 L338 474 C392 474 431 462 420 399 C409 335 364 320 311 320 L311 320 Z M205 568 C180 568 153 547 148 520 L57 0 L150 0 L189 224 L314 224 C345 224 372 210 365 174 L335 0 L428 0 L458 174 C466 218 457 248 437 271 C478 298 504 348 513 399 C533 512 472 568 351 568 L205 568 Z M302 639 L217 824 L325 824 L363 732 L434 824 L540 824 L388 639 L302 639 Z " />
<glyph glyph-name="rcaron" unicode="&#x159;" horiz-adv-x="324" d="M363 261 C379 356 331 411 258 411 C185 411 115 361 102 284 L52 0 L145 0 L192 271 C199 310 218 317 241 317 C262 317 277 300 270 261 L363 261 Z M310 470 L429 655 L330 655 L285 563 L269 655 L168 655 L224 470 L310 470 Z " />
<glyph glyph-name="Sacute" unicode="&#x15a;" horiz-adv-x="462" d="M482 376 C501 505 440 575 328 575 C209 575 129 525 108 405 C76 221 372 240 360 167 C350 104 289 84 256 84 C212 84 156 108 164 188 L70 188 C54 60 134 -5 241 -5 C369 -5 438 76 454 168 C486 341 187 313 203 406 C216 482 274 481 311 481 C372 481 397 437 389 376 L482 376 Z M266 704 L307 639 L487 758 L435 836 L266 704 Z " />
<glyph glyph-name="sacute" unicode="&#x15b;" horiz-adv-x="374" d="M242 317 C271 317 295 308 288 268 L381 268 C397 364 343 411 259 411 C172 411 102 369 86 281 C62 155 278 161 270 121 C264 91 225 84 203 84 C175 84 146 95 153 136 L60 136 C44 39 108 -5 188 -5 C281 -5 348 41 363 121 C383 247 171 234 179 282 C184 317 224 317 242 317 L242 317 Z M182 535 L223 470 L403 589 L351 667 L182 535 Z " />
<glyph glyph-name="Scircumflex" unicode="&#x15c;" horiz-adv-x="462" d="M482 376 C501 505 440 575 328 575 C209 575 129 525 108 405 C76 221 372 240 360 167 C350 104 289 84 256 84 C212 84 156 108 164 188 L70 188 C54 60 134 -5 241 -5 C369 -5 438 76 454 168 C486 341 187 313 203 406 C216 482 274 481 311 481 C372 481 397 437 389 376 L482 376 Z M325 824 L174 639 L282 639 L352 731 L391 639 L497 639 L411 824 L325 824 Z " />
<glyph glyph-name="scircumflex" unicode="&#x15d;" horiz-adv-x="374" d="M242 317 C271 317 295 308 288 268 L381 268 C397 364 343 411 259 411 C172 411 102 369 86 281 C62 155 278 161 270 121 C264 91 225 84 203 84 C175 84 146 95 153 136 L60 136 C44 39 108 -5 188 -5 C281 -5 348 41 363 121 C383 247 171 234 179 282 C184 317 224 317 242 317 L242 317 Z M345 655 L411 470 L312 470 L287 566 L228 470 L127 470 L259 655 L345 655 Z " />
<glyph glyph-name="Scedilla" unicode="&#x15e;" horiz-adv-x="462" d="M454 168 C486 341 187 313 203 406 C216 482 274 481 311 481 C372 481 397 437 389 376 L482 376 C501 505 440 575 328 575 C209 575 129 525 108 405 C76 221 372 240 360 167 C350 104 289 84 256 84 C212 84 156 108 164 188 L70 188 C54 64 131 -2 234 -5 C245 -24 255 -44 252 -56 C249 -71 226 -75 210 -75 C185 -75 146 -67 138 -56 L103 -107 C131 -130 161 -136 198 -136 C245 -136 306 -116 314 -65 C318 -44 312 -17 301 2 C392 23 441 92 454 168 L454 168 Z " />
<glyph glyph-name="scedilla" unicode="&#x15f;" horiz-adv-x="374" d="M242 317 C271 317 295 308 288 268 L381 268 C397 364 343 411 259 411 C172 411 102 369 86 281 C62 155 278 161 270 121 C264 91 225 84 203 84 C175 84 146 95 153 136 L60 136 C44 39 108 -5 188 -5 C197 -5 206 -4 214 -3 C220 -14 222 -24 221 -34 C218 -49 198 -53 182 -53 C157 -53 123 -45 116 -34 L81 -85 C108 -108 129 -113 166 -113 C214 -113 275 -94 283 -43 C287 -22 283 -5 274 11 C321 31 354 69 363 121 C383 247 171 234 179 282 C184 317 224 317 242 317 L242 317 Z " />
<glyph glyph-name="Scaron" unicode="&#x160;" horiz-adv-x="462" d="M482 376 C501 505 440 575 328 575 C209 575 129 525 108 405 C76 221 372 240 360 167 C350 104 289 84 256 84 C212 84 156 108 164 188 L70 188 C54 60 134 -5 241 -5 C369 -5 438 76 454 168 C486 341 187 313 203 406 C216 482 274 481 311 481 C372 481 397 437 389 376 L482 376 Z M388 639 L540 824 L434 824 L363 732 L325 824 L217 824 L302 639 L388 639 Z " />
<glyph glyph-name="scaron" unicode="&#x161;" horiz-adv-x="374" d="M242 317 C271 317 295 308 288 268 L381 268 C397 364 343 411 259 411 C172 411 102 369 86 281 C62 155 278 161 270 121 C264 91 225 84 203 84 C175 84 146 95 153 136 L60 136 C44 39 108 -5 188 -5 C281 -5 348 41 363 121 C383 247 171 234 179 282 C184 317 224 317 242 317 L242 317 Z M229 470 L166 655 L274 655 L290 563 L335 655 L441 655 L315 470 L229 470 Z " />
<glyph glyph-name="uni0162" unicode="&#x162;" horiz-adv-x="436" d="M110 474 L255 474 L172 0 L265 0 L348 474 L492 474 L509 568 L127 568 L110 474 Z M252 -71 L160 -71 L91 -215 L169 -215 L252 -71 Z " />
<glyph glyph-name="uni0163" unicode="&#x163;" horiz-adv-x="332" d="M83 405 L66 311 L138 311 L105 122 C90 45 134 -5 207 -5 C283 -5 338 55 351 123 L258 123 C255 104 243 84 222 84 C201 84 193 96 198 121 L231 311 L338 311 L355 405 L248 405 L277 568 L184 568 L155 405 L83 405 Z M150 -215 L72 -215 L141 -71 L233 -71 L150 -215 Z " />
<glyph glyph-name="Tcaron" unicode="&#x164;" horiz-adv-x="436" d="M110 474 L255 474 L172 0 L265 0 L348 474 L492 474 L509 568 L127 568 L110 474 Z M286 639 L201 824 L309 824 L347 732 L418 824 L524 824 L372 639 L286 639 Z " />
<glyph glyph-name="tcaron" unicode="&#x165;" horiz-adv-x="332" d="M83 405 L66 311 L138 311 L105 122 C90 45 134 -5 207 -5 C283 -5 338 55 351 123 L258 123 C255 104 243 84 222 84 C201 84 193 96 198 121 L231 311 L338 311 L355 405 L248 405 L277 568 L184 568 L155 405 L83 405 Z M364 452 L300 452 L344 568 L429 568 L364 452 Z " />
<glyph glyph-name="Tbar" unicode="&#x166;" horiz-adv-x="436" d="M492 474 L509 568 L127 568 L110 474 L255 474 L232 344 L132 344 L116 250 L216 250 L172 0 L265 0 L309 250 L409 250 L425 344 L325 344 L348 474 L492 474 Z " />
<glyph glyph-name="tbar" unicode="&#x167;" horiz-adv-x="332" d="M121 214 L105 122 C90 45 134 -5 207 -5 C283 -5 338 55 351 123 L258 123 C255 104 243 84 222 84 C201 84 193 96 198 121 L214 214 L321 214 L338 308 L231 308 L243 376 L350 376 L366 470 L259 470 L277 568 L184 568 L166 470 L94 470 L78 376 L150 376 L138 308 L66 308 L49 214 L121 214 Z " />
<glyph glyph-name="Utilde" unicode="&#x168;" horiz-adv-x="492" d="M447 568 L379 182 C366 115 313 84 260 84 C208 84 164 115 177 182 L245 568 L152 568 L84 187 C65 74 125 -5 245 -5 C365 -5 453 74 472 187 L540 568 L447 568 Z M527 691 C484 659 441 639 406 639 C366 639 344 671 308 671 C293 671 282 665 255 648 L212 715 C255 747 289 765 324 765 C364 765 392 733 424 733 C441 733 457 742 484 759 L527 691 Z " />
<glyph glyph-name="utilde" unicode="&#x169;" horiz-adv-x="406" d="M202 -5 C285 -5 362 48 378 137 L425 405 L332 405 L284 135 C277 95 245 84 217 84 C189 84 161 95 168 135 L216 405 L123 405 L76 137 C60 48 120 -5 202 -5 L202 -5 Z M431 520 C395 484 368 470 333 470 C307 470 275 495 242 495 C235 495 217 488 193 473 L158 540 C194 576 221 590 256 590 C282 590 314 565 347 565 C354 565 372 572 396 587 L431 520 Z " />
<glyph glyph-name="Umacron" unicode="&#x16a;" horiz-adv-x="492" d="M447 568 L379 182 C366 115 313 84 260 84 C208 84 164 115 177 182 L245 568 L152 568 L84 187 C65 74 125 -5 245 -5 C365 -5 453 74 472 187 L540 568 L447 568 Z M229 727 L519 727 L503 639 L213 639 L229 727 Z " />
<glyph glyph-name="umacron" unicode="&#x16b;" horiz-adv-x="406" d="M202 -5 C285 -5 362 48 378 137 L425 405 L332 405 L284 135 C277 95 245 84 217 84 C189 84 161 95 168 135 L216 405 L123 405 L76 137 C60 48 120 -5 202 -5 L202 -5 Z M166 558 L436 558 L420 470 L150 470 L166 558 Z " />
<glyph glyph-name="Ubreve" unicode="&#x16c;" horiz-adv-x="492" d="M447 568 L379 182 C366 115 313 84 260 84 C208 84 164 115 177 182 L245 568 L152 568 L84 187 C65 74 125 -5 245 -5 C365 -5 453 74 472 187 L540 568 L447 568 Z M360 639 C441 639 512 675 533 781 L440 781 C432 729 394 721 375 721 C359 721 322 729 330 781 L237 781 C224 675 277 639 360 639 L360 639 Z " />
<glyph glyph-name="ubreve" unicode="&#x16d;" horiz-adv-x="406" d="M202 -5 C285 -5 362 48 378 137 L425 405 L332 405 L284 135 C277 95 245 84 217 84 C189 84 161 95 168 135 L216 405 L123 405 L76 137 C60 48 120 -5 202 -5 L202 -5 Z M284 470 C365 470 426 506 447 612 L354 612 C346 560 318 552 299 552 C282 552 256 560 264 612 L171 612 C158 506 201 470 284 470 L284 470 Z " />
<glyph glyph-name="Uring" unicode="&#x16e;" horiz-adv-x="492" d="M447 568 L379 182 C366 115 313 84 260 84 C208 84 164 115 177 182 L245 568 L152 568 L84 187 C65 74 125 -5 245 -5 C365 -5 453 74 472 187 L540 568 L447 568 Z M396 855 C338 855 280 803 269 746 C258 689 302 639 358 639 C416 639 474 689 485 746 C496 803 452 855 396 855 L396 855 Z M371 713 C358 713 344 723 348 746 C352 770 370 780 383 780 C396 780 410 770 406 746 C402 723 384 713 371 713 L371 713 Z " />
<glyph glyph-name="uring" unicode="&#x16f;" horiz-adv-x="406" d="M202 -5 C285 -5 362 48 378 137 L425 405 L332 405 L284 135 C277 95 245 84 217 84 C189 84 161 95 168 135 L216 405 L123 405 L76 137 C60 48 120 -5 202 -5 L202 -5 Z M325 686 C267 686 209 634 198 577 C187 520 231 470 287 470 C345 470 403 520 414 577 C425 634 381 686 325 686 L325 686 Z M300 544 C287 544 273 554 277 577 C281 601 299 611 312 611 C325 611 339 601 335 577 C331 554 313 544 300 544 L300 544 Z " />
<glyph glyph-name="Uhungarumlaut" unicode="&#x170;" horiz-adv-x="492" d="M447 568 L379 182 C366 115 313 84 260 84 C208 84 164 115 177 182 L245 568 L152 568 L84 187 C65 74 125 -5 245 -5 C365 -5 453 74 472 187 L540 568 L447 568 Z M412 795 L320 795 L255 639 L326 639 L412 795 Z M543 795 L451 795 L386 639 L457 639 L543 795 Z " />
<glyph glyph-name="uhungarumlaut" unicode="&#x171;" horiz-adv-x="406" d="M202 -5 C285 -5 362 48 378 137 L425 405 L332 405 L284 135 C277 95 245 84 217 84 C189 84 161 95 168 135 L216 405 L123 405 L76 137 C60 48 120 -5 202 -5 L202 -5 Z M329 626 L237 626 L172 470 L243 470 L329 626 Z M460 626 L368 626 L303 470 L374 470 L460 626 Z " />
<glyph glyph-name="Uogonek" unicode="&#x172;" horiz-adv-x="492" d="M447 568 L379 182 C366 115 313 84 260 84 C208 84 164 115 177 182 L245 568 L152 568 L84 187 C65 83 117 8 218 -3 L217 -10 C206 -69 259 -101 312 -101 C351 -101 374 -89 402 -66 L382 -19 C363 -31 344 -41 319 -41 C294 -41 285 -25 282 -2 C383 13 455 87 472 187 L540 568 L447 568 Z " />
<glyph glyph-name="uogonek" unicode="&#x173;" horiz-adv-x="406" d="M378 137 L425 405 L332 405 L284 135 C277 95 245 84 217 84 C189 84 161 95 168 135 L216 405 L123 405 L76 137 C63 64 99 16 159 0 L157 -10 C146 -69 199 -101 252 -101 C291 -101 314 -89 342 -66 L322 -19 C303 -31 284 -41 259 -41 C234 -41 225 -27 222 -4 C296 4 362 55 378 137 L378 137 Z " />
<glyph glyph-name="Ydieresis" unicode="&#x178;" horiz-adv-x="478" d="M318 185 C407 209 480 284 496 374 L531 568 L438 568 L403 374 C392 308 339 274 288 274 C236 274 194 308 205 374 L240 568 L147 568 L112 374 C97 283 145 210 224 185 L192 0 L286 0 L318 185 Z M214 701 C207 668 232 639 265 639 C301 639 332 668 339 701 C346 737 323 764 287 764 C254 764 221 737 214 701 L214 701 Z M386 701 C379 668 404 639 437 639 C473 639 504 668 511 701 C518 737 495 764 459 764 C426 764 393 737 386 701 L386 701 Z " />
<glyph glyph-name="Zacute" unicode="&#x179;" horiz-adv-x="461" d="M37 0 L424 0 L440 94 L159 94 C240 195 494 394 510 488 L524 568 L137 568 L120 474 L404 474 C340 374 101 190 53 91 L37 0 Z M251 704 L292 639 L472 758 L420 836 L251 704 Z " />
<glyph glyph-name="zacute" unicode="&#x17a;" horiz-adv-x="364" d="M40 0 L324 0 L340 92 L159 92 C213 168 355 265 384 341 L395 405 L111 405 L95 313 L260 313 C203 253 67 150 51 68 L40 0 Z M170 535 L211 470 L391 589 L339 667 L170 535 Z " />
<glyph glyph-name="Zdotaccent" unicode="&#x17b;" horiz-adv-x="461" d="M37 0 L424 0 L440 94 L159 94 C240 195 494 394 510 488 L524 568 L137 568 L120 474 L404 474 C340 374 101 190 53 91 L37 0 Z M291 701 C284 668 309 639 342 639 C378 639 409 668 416 701 C423 737 400 764 364 764 C331 764 298 737 291 701 L291 701 Z " />
<glyph glyph-name="zdotaccent" unicode="&#x17c;" horiz-adv-x="364" d="M40 0 L324 0 L340 92 L159 92 C213 168 355 265 384 341 L395 405 L111 405 L95 313 L260 313 C203 253 67 150 51 68 L40 0 Z M223 532 C216 499 241 470 274 470 C310 470 341 499 348 532 C355 568 332 595 296 595 C263 595 230 568 223 532 L223 532 Z " />
<glyph glyph-name="Zcaron" unicode="&#x17d;" horiz-adv-x="461" d="M37 0 L424 0 L440 94 L159 94 C240 195 494 394 510 488 L524 568 L137 568 L120 474 L404 474 C340 374 101 190 53 91 L37 0 Z M304 639 L219 824 L327 824 L365 732 L436 824 L542 824 L390 639 L304 639 Z " />
<glyph glyph-name="zcaron" unicode="&#x17e;" horiz-adv-x="364" d="M40 0 L324 0 L340 92 L159 92 C213 168 355 265 384 341 L395 405 L111 405 L95 313 L260 313 C203 253 67 150 51 68 L40 0 Z M223 470 L160 655 L268 655 L284 563 L329 655 L435 655 L309 470 L223 470 Z " />
<glyph glyph-name="florin" unicode="&#x192;" horiz-adv-x="323" d="M72 -65 C67 -92 61 -102 42 -102 C29 -102 12 -100 -9 -95 L-44 -178 C-23 -186 8 -193 28 -193 C100 -193 148 -159 163 -79 L231 311 L344 311 L361 405 L248 405 L257 456 C261 480 274 492 295 492 C316 492 324 481 320 459 L413 459 C426 531 388 585 313 585 C240 585 179 538 164 459 L155 405 L83 405 L66 311 L138 311 L72 -65 Z " />
<glyph glyph-name="uni0218" unicode="&#x218;" horiz-adv-x="462" d="M482 376 C501 505 440 575 328 575 C209 575 129 525 108 405 C76 221 372 240 360 167 C350 104 289 84 256 84 C212 84 156 108 164 188 L70 188 C54 60 134 -5 241 -5 C369 -5 438 76 454 168 C486 341 187 313 203 406 C216 482 274 481 311 481 C372 481 397 437 389 376 L482 376 Z M207 -215 L129 -215 L198 -71 L290 -71 L207 -215 Z " />
<glyph glyph-name="uni0219" unicode="&#x219;" horiz-adv-x="374" d="M242 317 C271 317 295 308 288 268 L381 268 C397 364 343 411 259 411 C172 411 102 369 86 281 C62 155 278 161 270 121 C264 91 225 84 203 84 C175 84 146 95 153 136 L60 136 C44 39 108 -5 188 -5 C281 -5 348 41 363 121 C383 247 171 234 179 282 C184 317 224 317 242 317 L242 317 Z M252 -71 L160 -71 L91 -215 L169 -215 L252 -71 Z " />
<glyph glyph-name="uni021A" unicode="&#x21a;" horiz-adv-x="436" d="M110 474 L255 474 L172 0 L265 0 L348 474 L492 474 L509 568 L127 568 L110 474 Z M257 -71 L165 -71 L96 -215 L174 -215 L257 -71 Z " />
<glyph glyph-name="uni021B" unicode="&#x21b;" horiz-adv-x="332" d="M83 405 L66 311 L138 311 L105 122 C90 45 134 -5 207 -5 C283 -5 338 55 351 123 L258 123 C255 104 243 84 222 84 C201 84 193 96 198 121 L231 311 L338 311 L355 405 L248 405 L277 568 L184 568 L155 405 L83 405 Z M160 -215 L82 -215 L151 -71 L243 -71 L160 -215 Z " />
<glyph glyph-name="circumflex" unicode="&#x2c6;" horiz-adv-x="437" d="M275 568 L124 383 L232 383 L302 475 L341 383 L447 383 L361 568 L275 568 Z " />
<glyph glyph-name="caron" unicode="&#x2c7;" horiz-adv-x="437" d="M328 383 L480 568 L374 568 L302 476 L265 568 L157 568 L242 383 L328 383 Z " />
<glyph glyph-name="breve" unicode="&#x2d8;" horiz-adv-x="410" d="M281 433 C363 433 430 469 454 575 L361 575 C353 523 313 515 295 515 C278 515 243 523 251 575 L158 575 C142 469 199 433 281 433 L281 433 Z " />
<glyph glyph-name="dotaccent" unicode="&#x2d9;" horiz-adv-x="239" d="M146 505 C139 472 164 443 197 443 C233 443 264 472 271 505 C278 541 255 568 219 568 C186 568 153 541 146 505 L146 505 Z " />
<glyph glyph-name="ring" unicode="&#x2da;" horiz-adv-x="330" d="M266 575 C208 575 150 523 139 466 C128 409 172 359 228 359 C286 359 344 409 355 466 C366 523 322 575 266 575 L266 575 Z M241 433 C228 433 214 443 218 466 C222 490 240 500 253 500 C266 500 280 490 276 466 C272 443 254 433 241 433 L241 433 Z " />
<glyph glyph-name="ogonek" unicode="&#x2db;" horiz-adv-x="309" d="M59 0 C55 -9 52 -24 52 -27 C41 -86 94 -118 147 -118 C186 -118 208 -111 236 -88 L216 -41 C198 -52 177 -58 154 -58 C123 -58 114 -39 121 0 L59 0 Z " />
<glyph glyph-name="tilde" unicode="&#x2dc;" horiz-adv-x="434" d="M422 569 C395 552 378 543 361 543 C330 543 302 575 262 575 C227 575 192 557 149 525 L192 458 C219 475 230 481 245 481 C281 481 305 449 344 449 C379 449 421 469 465 501 L422 569 Z " />
<glyph glyph-name="hungarumlaut" unicode="&#x2dd;" horiz-adv-x="374" d="M286 568 L194 568 L129 412 L200 412 L286 568 Z M417 568 L325 568 L260 412 L331 412 L417 568 Z " />
<glyph glyph-name="uni03A9" unicode="&#x3a9;" horiz-adv-x="580" d="M374 481 C427 481 468 450 457 384 L414 137 C409 112 405 99 382 86 L367 0 L523 0 L538 89 L495 89 C502 104 503 118 506 131 L550 383 C569 494 512 575 391 575 C272 575 183 494 164 383 L120 131 C117 116 115 102 115 89 L72 89 L57 0 L213 0 L228 86 C209 99 209 112 214 137 L257 384 C269 451 322 481 374 481 L374 481 Z " />
<glyph glyph-name="pi" unicode="&#x3c0;" horiz-adv-x="608" d="M305 311 L411 311 L357 0 L450 0 L504 311 L605 311 L622 405 L128 405 L111 311 L212 311 L158 0 L251 0 L305 311 Z " />
<glyph glyph-name="ZWSP" unicode="&#x200b;" d="" />
<glyph glyph-name="endash" unicode="&#x2013;" horiz-adv-x="404" d="M83 153 L373 153 L390 247 L100 247 L83 153 Z " />
<glyph glyph-name="emdash" unicode="&#x2014;" horiz-adv-x="505" d="M83 153 L474 153 L491 247 L100 247 L83 153 Z " />
<glyph glyph-name="quoteleft" unicode="&#x2018;" horiz-adv-x="290" d="M127 401 L227 401 L333 568 L247 568 L127 401 Z " />
<glyph glyph-name="quoteright" unicode="&#x2019;" horiz-adv-x="290" d="M333 568 L233 568 L127 401 L213 401 L333 568 Z " />
<glyph glyph-name="quotesinglbase" unicode="&#x201a;" horiz-adv-x="290" d="M247 84 L147 84 L42 -83 L128 -83 L247 84 Z " />
<glyph glyph-name="quotedblleft" unicode="&#x201c;" horiz-adv-x="455" d="M127 401 L227 401 L333 568 L247 568 L127 401 Z M292 401 L392 401 L498 568 L412 568 L292 401 Z " />
<glyph glyph-name="quotedblright" unicode="&#x201d;" horiz-adv-x="455" d="M498 568 L398 568 L292 401 L378 401 L498 568 Z M333 568 L233 568 L127 401 L213 401 L333 568 Z " />
<glyph glyph-name="quotedblbase" unicode="&#x201e;" horiz-adv-x="455" d="M412 84 L312 84 L207 -83 L293 -83 L412 84 Z M247 84 L147 84 L42 -83 L128 -83 L247 84 Z " />
<glyph glyph-name="dagger" unicode="&#x2020;" horiz-adv-x="427" d="M111 311 L222 311 L137 -171 L230 -171 L315 311 L424 311 L441 405 L332 405 L361 568 L268 568 L239 405 L128 405 L111 311 Z " />
<glyph glyph-name="daggerdbl" unicode="&#x2021;" horiz-adv-x="427" d="M73 94 L57 0 L168 0 L137 -171 L230 -171 L261 0 L370 0 L386 94 L277 94 L315 311 L424 311 L441 405 L332 405 L361 568 L268 568 L239 405 L128 405 L111 311 L222 311 L184 94 L73 94 Z " />
<glyph glyph-name="bullet" unicode="&#x2022;" horiz-adv-x="270" d="M92 200 C84 157 113 124 156 124 C200 124 240 157 248 200 C256 244 228 278 184 278 C141 278 100 244 92 200 L92 200 Z " />
<glyph glyph-name="ellipsis" unicode="&#x2026;" horiz-adv-x="651" d="M67 57 C60 24 85 -5 118 -5 C153 -5 184 24 191 57 C198 93 175 120 140 120 C107 120 74 93 67 57 L67 57 Z M273 57 C266 24 291 -5 323 -5 C359 -5 390 24 397 57 C404 93 381 120 345 120 C313 120 280 93 273 57 L273 57 Z M479 57 C472 24 497 -5 530 -5 C566 -5 597 24 604 57 C611 93 588 120 552 120 C519 120 486 93 479 57 L479 57 Z " />
<glyph glyph-name="perthousand" unicode="&#x2030;" horiz-adv-x="667" d="M334 441 C313 441 311 449 314 468 C318 488 323 496 344 496 C367 496 369 488 365 468 C362 449 357 441 334 441 L334 441 Z M321 365 C392 365 426 401 438 468 C449 532 428 568 357 568 C288 568 252 532 241 468 C229 401 252 365 321 365 L321 365 Z M104 202 L507 280 L509 362 L107 284 L104 202 Z M269 71 C248 71 245 79 249 98 C252 118 258 126 279 126 C302 126 303 118 300 98 C296 79 292 71 269 71 L269 71 Z M256 -5 C327 -5 361 31 373 98 C384 162 362 198 291 198 C222 198 187 162 176 98 C164 31 187 -5 256 -5 L256 -5 Z M523 71 C502 71 499 79 503 98 C506 118 512 126 533 126 C556 126 557 118 554 98 C550 79 546 71 523 71 L523 71 Z M510 -5 C581 -5 615 31 627 98 C638 162 616 198 545 198 C476 198 441 162 430 98 C418 31 441 -5 510 -5 L510 -5 Z " />
<glyph glyph-name="guilsinglleft" unicode="&#x2039;" horiz-adv-x="404" d="M84 157 L345 -10 L364 98 C313 130 248 169 197 201 L400 305 L419 412 L100 247 L84 157 Z " />
<glyph glyph-name="guilsinglright" unicode="&#x203a;" horiz-adv-x="404" d="M390 247 L129 412 L110 305 L277 201 C213 169 135 130 74 98 L55 -10 L374 157 L390 247 Z " />
<glyph glyph-name="fraction" unicode="&#x2044;" horiz-adv-x="522" d="M34 -127 L127 -127 L590 713 L497 713 L34 -127 Z " />
<glyph glyph-name="Euro" unicode="&#x20ac;" horiz-adv-x="499" d="M264 84 C213 84 173 119 181 180 L326 180 L341 263 L196 263 L205 314 L350 314 L365 397 L221 397 C236 453 286 480 334 480 C385 480 422 447 414 378 L508 378 C524 494 469 575 351 575 C232 575 143 494 124 383 L89 187 C70 74 128 -5 249 -5 C366 -5 451 76 475 192 L381 192 C364 123 315 84 264 84 L264 84 Z " />
<glyph glyph-name="Numero" unicode="&#x2116;" horiz-adv-x="869" d="M352 0 L445 0 L512 383 C531 494 473 575 352 575 C233 575 143 494 124 383 L57 0 L150 0 L217 383 C229 448 283 481 335 481 C388 481 430 450 419 383 L352 0 Z M884 410 C900 499 838 552 757 552 C674 552 597 499 581 410 L558 278 C542 189 601 136 683 136 C766 136 845 189 861 278 L884 410 Z M699 225 C671 225 643 241 650 273 L674 410 C679 442 712 458 740 458 C771 458 796 442 791 410 L767 273 C760 241 730 225 699 225 L699 225 Z M509 0 L812 0 L828 94 L525 94 L509 0 Z " />
<glyph glyph-name="trademark" unicode="&#x2122;" horiz-adv-x="689" d="M142 486 L208 486 L171 273 L253 273 L290 486 L354 486 L369 568 L157 568 L142 486 Z M553 273 L585 454 C589 481 603 486 614 486 C621 486 634 481 630 454 L598 273 L680 273 L714 466 C725 526 698 568 630 568 C611 568 585 564 561 541 C544 564 520 568 501 568 C433 568 392 526 381 466 L347 273 L430 273 L462 454 C466 481 480 486 488 486 C499 486 510 481 506 454 L474 273 L553 273 Z " />
<glyph glyph-name="Omega" unicode="&#x2126;" horiz-adv-x="580" d="M374 481 C427 481 468 450 457 384 L414 137 C409 112 405 99 382 86 L367 0 L523 0 L538 89 L495 89 C502 104 503 118 506 131 L550 383 C569 494 512 575 391 575 C272 575 183 494 164 383 L120 131 C117 116 115 102 115 89 L72 89 L57 0 L213 0 L228 86 C209 99 209 112 214 137 L257 384 C269 451 322 481 374 481 L374 481 Z " />
<glyph glyph-name="partialdiff" unicode="&#x2202;" horiz-adv-x="418" d="M223 84 C194 84 166 100 173 132 L190 231 C197 263 229 279 258 279 C286 279 314 264 309 233 L291 132 C284 100 252 84 223 84 L223 84 Z M437 435 C453 523 398 575 317 575 C236 575 161 525 143 422 L235 422 C243 469 273 483 301 483 C332 483 351 466 344 435 L330 357 C311 369 290 373 269 373 C186 373 113 320 97 231 L81 137 C65 48 125 -5 208 -5 C290 -5 369 48 385 137 L437 435 Z " />
<glyph glyph-name="Delta" unicode="&#x2206;" horiz-adv-x="780" d="M510 558 C503 567 496 571 490 571 C484 571 476 567 466 558 L62 34 C59 14 69 0 85 0 L695 0 C711 0 725 14 728 34 L510 558 Z M217 94 L462 412 L595 94 L217 94 Z " />
<glyph glyph-name="product" unicode="&#x220f;" horiz-adv-x="608" d="M334 474 L440 474 L357 0 L450 0 L533 474 L634 474 L651 568 L157 568 L140 474 L241 474 L158 0 L251 0 L334 474 Z " />
<glyph glyph-name="summation" unicode="&#x2211;" horiz-adv-x="455" d="M193 283 L71 81 L65 48 C60 21 78 0 105 0 L398 0 L414 94 L179 94 L296 284 L246 474 L481 474 L498 568 L205 568 C178 568 153 547 148 520 L142 487 L193 283 Z " />
<glyph glyph-name="minus" unicode="&#x2212;" horiz-adv-x="404" d="M83 153 L373 153 L390 247 L100 247 L83 153 Z " />
<glyph glyph-name="radical" unicode="&#x221a;" horiz-adv-x="621" d="M223 98 C198 113 174 139 181 176 L188 219 L95 219 L86 170 C73 87 143 24 200 0 L221 0 C286 24 354 70 389 166 C456 358 490 454 522 545 L660 545 L676 639 L460 639 L298 180 C283 137 259 113 230 98 L223 98 Z " />
<glyph glyph-name="infinity" unicode="&#x221e;" horiz-adv-x="920" d="M675 67 C774 67 884 123 905 240 C924 351 860 416 737 416 C677 416 587 389 515 314 C470 389 388 416 329 416 C206 416 118 350 99 240 C78 123 169 67 267 67 C342 67 406 84 486 148 C541 84 598 67 675 67 L675 67 Z M312 322 C369 322 419 294 454 229 C401 178 343 156 283 156 C227 156 182 187 192 239 C203 309 273 322 312 322 L312 322 Z M720 322 C762 322 824 309 813 239 C802 187 750 156 691 156 C631 156 581 178 546 229 C603 294 663 322 720 322 L720 322 Z " />
<glyph glyph-name="integral" unicode="&#x222b;" horiz-adv-x="519" d="M201 -64 C197 -88 184 -100 163 -100 C142 -100 134 -89 138 -67 L45 -67 C32 -139 70 -193 145 -193 C218 -193 279 -146 294 -67 L384 446 C389 470 401 482 422 482 C443 482 452 471 448 449 L541 449 C552 521 516 575 440 575 C367 575 305 528 292 449 L201 -64 Z " />
<glyph glyph-name="approxequal" unicode="&#x2248;" horiz-adv-x="434" d="M354 186 C327 169 311 160 294 160 C262 160 234 192 194 192 C159 192 125 174 82 142 L125 75 C152 92 163 98 178 98 C214 98 236 66 276 66 C311 66 354 86 397 118 L354 186 Z M380 330 C353 313 336 304 319 304 C288 304 260 336 220 336 C185 336 150 318 107 286 L150 219 C177 236 188 242 203 242 C239 242 263 210 302 210 C337 210 379 230 423 262 L380 330 Z " />
<glyph glyph-name="notequal" unicode="&#x2260;" horiz-adv-x="404" d="M384 211 L400 305 L346 305 L402 404 L302 404 L246 305 L110 305 L94 211 L195 211 L166 160 L85 160 L68 66 L114 66 L78 0 L178 0 L214 66 L358 66 L375 160 L266 160 L295 211 L384 211 Z " />
<glyph glyph-name="lessequal" unicode="&#x2264;" horiz-adv-x="404" d="M103 261 L369 125 L387 230 L220 307 L413 379 L432 483 L118 351 L103 261 Z M57 0 L347 0 L363 94 L73 94 L57 0 Z " />
<glyph glyph-name="greaterequal" unicode="&#x2265;" horiz-adv-x="404" d="M408 351 L142 483 L123 379 L292 307 L97 230 L79 125 L393 261 L408 351 Z M363 94 L73 94 L57 0 L347 0 L363 94 Z " />
<glyph glyph-name="lozenge" unicode="&#x25ca;" horiz-adv-x="512" d="M255 -5 C262 -5 266 -3 278 4 L502 269 L506 291 L374 560 C369 565 363 568 356 568 C347 568 340 565 334 560 L108 291 L104 269 L234 4 C243 -2 250 -5 255 -5 L255 -5 Z M330 422 C353 375 378 327 401 280 L280 138 L209 280 C248 327 291 375 330 422 L330 422 Z " />
<glyph glyph-name="uni25CC" unicode="&#x25cc;" horiz-adv-x="512" d="" />
<glyph glyph-name="fi" unicode="&#xfb01;" horiz-adv-x="526" d="M138 311 L84 0 L177 0 L231 311 L344 311 L361 405 L248 405 L257 456 C261 480 274 492 295 492 C316 492 324 481 320 459 L413 459 C426 531 388 585 313 585 C240 585 179 538 164 459 L155 405 L83 405 L66 311 L138 311 Z M447 405 L540 405 L469 0 L376 0 L447 405 Z M453 488 C458 520 486 544 518 544 C549 544 569 520 564 488 C557 457 530 434 499 434 C467 434 446 457 453 488 L453 488 Z " />
<glyph glyph-name="fl" unicode="&#xfb02;" horiz-adv-x="526" d="M138 311 L84 0 L177 0 L231 311 L344 311 L361 405 L248 405 L257 456 C261 480 274 492 295 492 C316 492 324 481 320 459 L413 459 C426 531 388 585 313 585 C240 585 179 538 164 459 L155 405 L83 405 L66 311 L138 311 Z M476 568 L569 568 L469 0 L376 0 L476 568 Z " />
</font>
</svg>
